<svg version="1.1" id="Layer_1" xmlns="http://www.w3.org/2000/svg" x="0" y="0" viewBox="0 0 189.3 49.6" style="enable-background:new 0 0 189.3 49.6" xml:space="preserve"><style>.st0{fill:#e06900}</style><path class="st0" d="M128.6 25c.2 3.3.4 6.7.5 10 .1 1.4-.3 1.9-1.7 1.9-2.6 0-5.2.1-7.8 0-2.1-.1-2.8-.8-2.9-2.9-.1-2.1-.1-4.2 0-6.3 0-1.2.7-2.2 1.8-2.9 1.2-.7 2.3-1.5 3.5-2.2 1.5-.8 2.1-1.9 2-3.5 0-.9-.1-1.8-.4-2.7-.1-.4-.6-.7-1-.8-.3 0-.8.4-.9.8-.2.8-.2 1.6-.1 2.3.2 1.7-.1 3-1.9 3.8-.3.1-.5.3-.8.5-.6.3-1.2.5-1.8.7-.2-.6-.6-1.2-.6-1.8 0-2.4.1-4.8.2-7.2.1-1.1.6-2 1.7-2 2.9-.1 5.8 0 8.8.1 1.1.1 1.4 1.2 1.4 2.1V25c0-.1 0-.1 0 0zm-4.6 5.4c0-.5 0-1.1-.1-1.6s-.4-.9-.7-1.4c-.5.3-1.3.6-1.4 1-.3 1.4-.4 2.9-.3 4.4 0 .3.9.8 1.4.8.3 0 .8-.6.9-1 .2-.7.2-1.5.2-2.2zM101.8 24.5c-.2-3.3-.3-6.7-.5-10-.1-1.4.3-1.9 1.7-1.9 2.6 0 5.2-.1 7.8 0 2.1.1 2.8.8 2.9 2.9.1 2.1.1 4.2 0 6.3 0 1.2-.7 2.2-1.8 2.9-1.2.7-2.3 1.5-3.5 2.2-1.5.8-2.1 1.9-2 3.5 0 .9.1 1.8.4 2.7.1.4.6.7 1 .8.3 0 .8-.4.9-.8.2-.8.2-1.6.1-2.3-.2-1.7.1-3 1.9-3.8.3-.1.5-.3.8-.5.6-.3 1.2-.5 1.8-.7.2.6.6 1.2.6 1.8 0 2.4-.1 4.8-.2 7.2-.1 1.1-.6 2-1.7 2-2.9.1-5.8 0-8.8-.1-1.1-.1-1.4-1.2-1.4-2.1 0-3.4.1-6.7 0-10.1zm4.6-5.5c0 .5 0 1.1.1 1.6s.4.9.7 1.4c.5-.3 1.3-.6 1.4-1 .3-1.4.4-2.9.3-4.4 0-.3-.9-.8-1.4-.8-.3 0-.8.6-.9 1-.2.7-.1 1.5-.2 2.2zM136.3 17.8c.1-.5.1-1 .3-1.5.1-.4.6-.7 1-.8.3 0 .8.4.9.8.2.8.2 1.6.1 2.3-.2 1.7.1 3 1.9 3.8.3.1.5.3.8.5.6.3 1.2.5 1.8.7.2-.6.6-1.2.6-1.8 0-2.4-.1-4.8-.2-7.2-.1-1.1-.6-2-1.7-2-2.9-.1-5.8 0-8.8.1-1.1.1-1.4 1.2-1.4 2.1v16.4c0 1.4-.1 2.9-.3 4.3-.1 1.1.4 1.4 1.4 1.4h2.8c1.2.1 1.5-.7 1.3-1.6-1.1-5.1-.1-10.3-.4-15.5M6.9 36.8H2.7c-1.6 0-2.4-.6-2.5-2.2-.1-2.4-.2-4.9 0-7.3.1-.8.8-1.7 1.5-2.3 1.2-1 2.5-1.9 3.9-2.6 1.6-.8 1.8-2.2 1.8-3.8 0-.7-.1-1.4-.4-2.1-.2-.4-.6-.7-.9-1.1-.3.4-.8.7-1 1.1-.1.8-.2 1.6-.1 2.4.1 1.5-.3 2.7-1.7 3.4-.9.5-1.8.9-2.7 1.3-.2-1-.5-2.1-.5-3.1-.1-1.9 0-3.8.1-5.7.1-1.3.6-2.3 2.1-2.4 2.5-.1 5.1-.2 7.6-.1 1.7.1 2.3 1.1 2.3 3.2v12.6c0 2.3.3 4.6.4 6.9.1 1.1-.3 1.7-1.4 1.7-1.4.1-2.8.1-4.3.1zm.5-10c-.6.3-.9.3-1.1.5-1.9 1.3-1.7 3.2-1.4 5.1.1.6.2 1.3 1.1 1.3.9 0 1.3-.5 1.3-1.3.2-1.8.1-3.5.1-5.6zM25.9 12.3c-.7 0-1.3 0-2-.1-1.3-.1-1.6.6-1.5 1.7.1.9.3 1.8.3 2.7V30c0 .9-.2 1.7-.4 2.6-.1.4-.6.9-.9.9-.4-.1-.9-.5-1.1-.9-.3-.7-.4-1.5-.4-2.3.1-5.4.3-10.9.4-16.3 0-1-.3-1.7-1.5-1.7h-2.5c-1 0-1.5.4-1.4 1.4.1 1.1.3 2.2.3 3.3v17c0 2.1.6 2.7 2.8 2.8h.4c1.8 0 3.7.1 5.5 0 2.5-.1 3.1-.7 3.4-3.2v-.9-8c0-3.5.1-6.9.2-10.4.3-1.6 0-1.9-1.6-2zM54.7 19.1v-2.4c0-.7 0-1.3-.1-2-.3-1.7-.1-2.1 1.7-2.1H69.9c.8 0 1.7.1 2.5.2.9.1 1.5.7 1.6 1.6.1 1 .3 2.1.3 3.1v17.9c0 1.3 0 2.6-.1 4-.1.6-.4 1.4-.8 1.8-.2.2-1.1-.3-1.6-.6-.6-.4-1.2-.9-1.9-1.2-.9-.5-1.2-1.1-1.1-2.1.2-1.1.6-2.1.6-3.2.1-2.2 0-4.3 0-6.5 0-3.1 0-6.2-.1-9.4 0-.9.2-2.3-1.3-2.3-1.3.1-1.2 1.4-1.2 2.3 0 5.2-.1 10.4.1 15.6.1 3.1-.2 3.6-3.3 3.3h-.1c-1.5-.1-1.9-.8-1.7-2.2.1-.9.2-1.7.2-2.6 0-4.6-.1-9.2-.1-13.8 0-.6-.1-1.2-.3-1.8-.1-.3-.6-.6-.9-.6-.3 0-.7.3-.9.5-.2.3-.4.8-.4 1.2 0 5.2-.2 10.5.1 15.7.2 3.8.3 3.9-3.5 3.6-1.7-.1-1.8-.4-1.7-2 .2-4.6.3-9.2.5-13.8M48.4 12.3h-.1c-1.5.1-1.9.8-1.7 2.2.1.9.2 1.7.2 2.6v4.8c0 3.1 0 6.2-.1 9.4 0 .9.2 2.3-1.3 2.3-1.3-.1-1.2-1.4-1.2-2.3 0-5.2-.1-10.4.1-15.6.1-3.1-.2-3.6-3.3-3.3h-.1c-1.5.1-1.9.8-1.7 2.2.1.9.2 1.7.2 2.6 0 4.4-.1 8.8-.1 13.2v1.3c0 1.1 0 2.1.1 3.2.1 1.5.8 2.1 2.3 2.1h5.6c.8 0 1.7-.1 2.5-.2.9-.1 1.5-.7 1.6-1.6.1-1 .3-2.1.3-3.1 0-4.8.1-9.4.1-14.2v-.1c0-.6 0-1.3.1-1.9-.1-3.4-.4-3.9-3.5-3.6zM89.5 35.7c-.1-1.1-.3-2.2-.3-3.3V21.6v-.4-1.1-.1-4.6c0-2.1-.6-2.7-2.8-2.8H86c-1.8 0-3.7-.1-5.5 0-2.5.1-3.1.7-3.4 3.2v8.9c0 1.8.1 4.4.1 6.2 0 1.5-.2 3.1-.5 4.6-.2.9.1 1.7 1.3 1.6.9-.1 1.8 0 2.8 0 1 0 1.5-.3 1.4-1.4-.1-1.4-.3-2.9-.3-4.3v-.6c0-3.6 0-7.9.1-11.5 0-.9.2-1.7.4-2.6.1-.4.6-.9.9-.9.4.1.9.5 1.1.9.3.7.4 1.5.4 2.3-.1 5.4-.3 10.9-.4 16.3 0 1 .3 1.7 1.5 1.7h2.5c.7.1 1.2-.3 1.1-1.3zM167 33.6V17.3c0-1-.2-2.1-.3-3.1-.1-1-.7-1.5-1.6-1.6-.8-.1-1.7-.2-2.5-.2h-3.3V11c0-3.2.1-6.5 0-9.7 0-1.2-.5-1.5-1.6-.9-.8.5-1.6 1.2-2.4 1.6-1.3.6-1.4 1.6-1.2 2.8.2 2 .5 4.1.5 6.1V14l.1 4v.3c.1 4.6.1 9.2.1 13.8 0 .9-.1 1.7-.2 2.6-.2 1.4.3 2 1.7 2.2h.1c3.1.2 3.4-.2 3.3-3.3-.2-5.2-.2-10.4-.1-15.6 0-.9-.1-2.2 1.2-2.3 1.5-.1 1.3 1.3 1.3 2.3.1 3.1.1 6.2.1 9.4 0 2.1.1 4.2 0 6.3.1 2.1.3 3.4.6 5 .4 2.2 1.4 4.4 2.9 6.2 3.3 3.8 7.7 5.2 12.7 4.8 1.5-.1 2.8-.7 4-1.6 2.4-1.8 4.5-3.8 5.9-6.5 1.8-3.5 1.1-7.5-2.5-10.3-2.4-1.9-5-2.8-8.1-1.9-.7.2-1.2.5-1.6 1.3-.5 1.1-1.3 2-1.9 3-.2.4-.3 1-.1 1.3.1.2.8.3 1.2.2 1.6-.4 3.1-.9 4.6-1.5 2.3-1 4.6.5 5.4 2.7 1 2.9.1 5.8-2.3 7.8-2.1 1.8-4.4 3-7.2 2.4-3.1-.6-6.3-1.6-7.9-4.5-1.4-2.6-.8-5.4-.9-8"/><path class="st0" d="M150.7 15.4v-.1c0-2.1.4-4.8 2.5-5.2 1.4-.3 7.6-.8 8.9-1.3.8-.3 1.3-1.1.8-2.1-1.9-.1-8.7-.2-10.6-.3-1.2-.1-1.6-.7-1.6-1.8 0-1.8 0-1.2-.1-2.9-.1-1.5-.5-1.7-1.8-.9-.8.5-1.6 1.1-2.5 1.5-1.1.6-1.2 1.4-1.1 2.5.3 2.7.3 2.7-2.4 3.2-.3 0-.5.1-.8.1-1.5.4-2.9 1-4 2.8.7.1 1.2.3 1.8.4l4.2.3c.9.1 1.5.5 1.6 1.4.1.8.1 1.6.2 2.3v16.5c0 1.2-.2 2.4-.3 3.7 0 .9.4 1.5 1.4 1.4h2.8c.8 0 1.1-.3 1.1-1.2-.1-3 0-6.1 0-9.1M35.9 14.7v-.9c0-2.1.4-2.4 2.5-2.8 1.4-.3 3.8-.3 5-.8.8-.3 1.3-1.1.8-2.1-1.9-.1-4.9.1-6.7 0-1.2-.1-1.6-.7-1.6-1.8 0-1.8 0-2.8-.1-4.6C35.7.2 35.3 0 34 .8c-.8.5-1.6 1.1-2.5 1.5-1.1.6-1.2 2.2-1.1 3.2.3 2.7.3 2-2.4 2.5-.3 0-.5.1-.8.1-1.5.4-2.9.3-4 2.1.7.1 1.2.3 1.8.4l4.2.3c.9.1 1.5.5 1.6 1.4.1.8.1 1.6.2 2.3v17.3c0 1.2-.2 2.4-.3 3.7 0 .9.4 1.5 1.4 1.4h2.8c.8 0 1.1-.3 1.1-1.2-.1-3 0-6.1 0-9.1"/></svg>