<?xml version="1.0" encoding="UTF-8"?>
<!DOCTYPE svg PUBLIC "-//W3C//DTD SVG 1.1//EN" "http://www.w3.org/Graphics/SVG/1.1/DTD/svg11.dtd">
<svg version="1.1" id="Layer_1" xmlns="http://www.w3.org/2000/svg" xmlns:xlink="http://www.w3.org/1999/xlink" x="0px" y="0px" width="100%" height="100%" preserveAspectRatio="xMinYMid meet" viewBox="0 0 450.00239 67.159151" enable-background="new 0 0 711.09 1554.792" xml:space="preserve">
	<g fill="#cfcfcf"><path id="path7" d="m161.52 3.8516c0.62822 0.37736 0.94697 1.0913 0.94697 2.1233v56.498c0 0.78616-0.248 1.433-0.73756 1.9225-0.45026 0.45025-1.0456 0.69396-1.7703 0.72541h-1.2078v2.0383h9.589v-2.0383h-1.3508c-0.50243-0.03-0.9634-0.17939-1.3829-0.44311-0.73613-0.42881-1.1128-1.1721-1.1128-2.2055v-52.782c0-1.7917 0.55817-3.3169 1.6595-4.5333 1.0442-1.1549 2.5028-1.771 4.3346-1.831l0.37878-0.009c1.9861 0.0164 3.5456 0.63607 4.6355 1.8403 1.1013 1.2178 1.6588 2.743 1.6588 4.5333v52.782c-0.06 0.61106-0.21084 1.1221-0.44954 1.5394-0.4524 0.67896-1.1078 1.0477-1.9568 1.1085l-1.3086 0.00072v2.0383h9.589v-2.0383h-1.3508c-0.50242-0.03-0.9634-0.17939-1.3836-0.44311-0.73613-0.42881-1.1128-1.1721-1.1128-2.2055v-52.782c0-1.7917 0.55817-3.3169 1.6595-4.5333 1.1056-1.2228 2.6636-1.8432 4.6319-1.8432 2.6058 0 4.4582 1.0034 5.5074 2.9838 0.52101 0.98413 0.78473 2.1262 0.78473 3.3926v52.782c0 0.78616-0.248 1.433-0.73756 1.9225-0.44954 0.44954-1.0206 0.69397-1.6952 0.72541h-1.1985v2.0383h9.589v-2.0383h-1.523c-0.91123-0.0615-1.5652-0.4331-1.9575-1.107-0.24014-0.41952-0.39165-0.93124-0.44954-1.5216l-0.00072-52.802c0-1.9147-0.58319-3.6921-1.7331-5.2808-1.5809-2.0697-3.7979-3.1218-6.5852-3.1218-1.8082 0-3.3054 0.35877-4.4497 1.0663-1.1464 0.71041-2.0604 1.6516-2.7144 2.7966l-0.18296 0.32018-0.18296-0.32018c-0.63-1.1437-1.56-2.0843-2.74-2.7954-1.15-0.6961-2.61-1.0549-4.33-1.0656l-0.2094-0.002h-12.038v2.0383h1.33c0.51815 0.0329 1.0434 0.2094 1.573 0.52744z"/><path id="path9" d="m219.64 64.679c-0.73613-0.42881-1.1128-1.1721-1.1128-2.2055v-52.782c0-1.7917 0.55817-3.3169 1.6588-4.5333 1.0442-1.1549 2.5028-1.771 4.3346-1.831l0.30089-0.005 0.21583 0.001c1.9218 0.0443 3.4362 0.66108 4.4983 1.8346 1.1013 1.2178 1.6595 2.743 1.6595 4.5333v52.782c0 0.78616-0.24871 1.433-0.73827 1.9225-0.44954 0.45025-1.0456 0.69396-1.7703 0.72541h-1.23v2.0383h9.589v-2.0383h-1.5001c-0.91123-0.06-1.523-0.36092-1.831-0.89694-0.32733-0.56318-0.49242-1.1528-0.49242-1.7517v-52.782c0-1.9146-0.58319-3.6921-1.7331-5.2808-1.5402-2.0169-3.7142-3.0667-6.4601-3.1168l-0.20726-0.005h-12.037v2.0383h1.185c0.52244 0.0307 1.0535 0.22369 1.5902 0.57103 0.62464 0.40738 0.94053 1.1063 0.94053 2.0776v56.498c0 0.78615-0.248 1.433-0.73756 1.9225-0.45025 0.45026-1.0463 0.69397-1.771 0.72541h-1.2078v2.0383h9.589v-2.0383h-1.3508c-0.50171-0.0286-0.96268-0.17796-1.3822-0.44168z"/><path id="path15" d="m8.1532 64.666c-0.7362-0.429-1.1121-1.172-1.1121-2.206v-45.73h12.667v45.73c0 0.78687-0.248 1.433-0.73756 1.9232-0.48956 0.48956-1.1364 0.73684-1.9225 0.73684h-2.5314v2.039h12.123v-2.0383h-2.2413c-1.0935 0-1.8232-0.30517-2.1705-0.90837-0.32733-0.56318-0.49242-1.1528-0.49242-1.7524v-54.048c0-1.9154-0.58319-3.6921-1.7338-5.2816-1.5809-2.0697-3.8265-3.1218-6.6695-3.1218-2.9531 0-5.1972 1.0499-6.6688 3.1203-1.0942 1.5866-1.6502 3.3648-1.6502 5.283v54.048c0 0.78687-0.248 1.433-0.73756 1.9232-0.48956 0.48956-1.1364 0.73684-1.9225 0.73684h-2.3535v2.039h12.123v-2.0383h-2.4192c-0.54888-0.00072-1.0692-0.15366-1.5502-0.45526zm-1.1121-56.254c0-1.7917 0.55817-3.3169 1.6588-4.5333 1.1056-1.2228 2.6644-1.8432 4.6319-1.8432 2.0233 0 3.6099 0.62035 4.717 1.8432 1.1013 1.2178 1.6588 2.743 1.6588 4.5333v6.2914h-12.666v-6.2914z"/><path id="path19" d="m299.91 66.091v-3.6313c0-0.7297-0.32589-1.0556-1.0556-1.0556-0.67181 0-0.97127 0.32589-0.97127 1.0556v2.6608h-10.007c-1.0913 0-1.8203-0.30588-2.1669-0.90837-0.32733-0.56317-0.49242-1.1528-0.49242-1.7517v-45.73l7.3835 0.015v-2.0419h-7.352l-0.0315-0.21083v-9.797c0-0.78615 0.248-1.433 0.73756-1.9225 0.45025-0.45026 1.0456-0.69468 1.771-0.72613l10.159-0.0114v3.7121h2.0261v-5.739h-21.748v2.0383h2.4986c0.52172 0.0315 1.052 0.2237 1.5873 0.57175 0.62464 0.40666 0.94053 1.1056 0.94053 2.0769v57.765c0 0.78687-0.248 1.4337-0.73756 1.9225-0.48885 0.48957-1.1356 0.73756-1.9225 0.73756h-2.2498v2.0383l20.576-0.0114c0.7297-0.00072 1.0556-0.32662 1.0556-1.0563z"/><path id="path21" d="m432.79 64.657c-0.73613-0.42882-1.1128-1.1721-1.1128-2.2055v-45.73h12.668v45.73c0 0.78615-0.24799 1.433-0.73756 1.9225-0.4624 0.46241-1.0756 0.70826-1.8217 0.7297h-1.2193v2.054h9.4375v-2.054h-1.1928c-0.97269-0.0414-1.6245-0.34377-1.9454-0.90051-0.32662-0.56318-0.49243-1.1528-0.49243-1.7517v-57.765c0-0.78616 0.248-1.433 0.73756-1.9225 0.40309-0.40308 0.92839-0.64179 1.5616-0.70897l1.3322-0.001v-2.054h-9.4375v2.0547h1.4258c0.47884 0.0658 0.9441 0.25157 1.4122 0.55531 0.62463 0.40738 0.94053 1.1056 0.94053 2.0776v10.007h-12.668v-10.007c0-0.78688 0.24872-1.4337 0.73756-1.9225 0.40309-0.40309 0.92839-0.64179 1.5616-0.70897l1.3951-0.001v-2.0547h-9.4368v2.0547h1.3944c0.65394 0.0686 1.1792 0.3066 1.5838 0.70968 0.48957 0.491 0.73756 1.1378 0.73756 1.9232v57.765c0 0.78616-0.24799 1.433-0.73756 1.9225-0.46312 0.4624-1.0763 0.70825-1.8217 0.7297h-1.1564v2.054h9.4368v-2.054h-1.1428c-0.51815-0.0207-0.99985-0.17153-1.4394-0.4474z"/><path id="path37" d="m370.99 64.224c-0.32661-0.56317-0.49242-1.1528-0.49242-1.7517v-38.087c0-1.8074-0.35878-3.3047-1.0663-4.4497-0.7104-1.1471-1.6516-2.0605-2.7966-2.7151l-0.30875-0.17582 0.30232-0.18653c1.1464-0.70897 2.0898-1.6524 2.8023-2.8023 0.70754-1.1449 1.0663-2.6129 1.0663-4.3646 0-2.8995-1.052-5.1729-3.1268-6.7574-1.528-1.0906-3.3054-1.6459-5.2766-1.6459h-12.034v2.0383h1.185c0.52315 0.0307 1.0534 0.22369 1.5902 0.57175 0.62392 0.40737 0.94053 1.1056 0.94053 2.0769v56.498c0 0.78687-0.24871 1.433-0.73756 1.9225-0.45097 0.45026-1.0463 0.69468-1.771 0.72613h-1.2078v2.0383h9.3739v-2.0383h-1.1356c-0.50243-0.0307-0.96411-0.17867-1.3836-0.44311-0.73613-0.42881-1.1121-1.1721-1.1121-2.2055v-44.464h6.2914c1.7896 0 3.3147 0.55817 4.5333 1.6595 1.2228 1.1063 1.8432 2.6944 1.8432 4.717v38.087c0 0.78687-0.24871 1.433-0.73756 1.9225-0.45026 0.45026-1.0456 0.69468-1.771 0.72613h-1.2078v2.0383h9.3739v-2.0383h-1.3072c-0.9098-0.0593-1.5216-0.36092-1.8296-0.89694zm-8.8958-48.242h-6.2914v-10.007c0-1.6688 0.85692-2.585 2.4793-2.6486h0.008l3.8043-0.0114c1.7896 0 3.3147 0.55817 4.5333 1.6595 1.2228 1.1063 1.8432 2.6937 1.8432 4.717 0 2.6058-1.0041 4.4582-2.9838 5.5067-0.98413 0.521-2.1262 0.78401-3.3926 0.78401z"/><path id="path41" d="m81.948 3.3151h6.3372c0.78544 0 1.4322 0.248 1.9218 0.73756 0.49028 0.49028 0.73827 1.1371 0.73827 1.9225v56.498c0 0.78687-0.24871 1.4337-0.73827 1.9225-0.34948 0.34949-0.78902 0.57747-1.3057 0.67681l-1.6659 0.003-0.004 0.98771c-0.003 0.0572-0.001 0.0729 0 0.0879l0.004 0.0507v0.95768h9.3803v-2.084h-1.5008c-0.39451-0.0743-0.72827-0.20726-1.032-0.39808-0.73613-0.4281-1.1128-1.1714-1.1128-2.2055v-56.498c0-1.7403 0.91981-2.6601 2.6601-2.6601h6.2528v3.7536h2.0662v-5.7804h-24.069v5.7804h2.0655v-3.7521z"/><path id="path43" d="m53.831 3.3603h1.4615c0.44668 0.0822 0.86907 0.26229 1.295 0.53816 0.62464 0.40666 0.94053 1.1056 0.94053 2.0769v52.782c0 1.7903-0.55817 3.3154-1.6588 4.5326-1.1071 1.2228-2.6944 1.8432-4.717 1.8432-1.9682 0-3.5263-0.62035-4.6326-1.8432-1.1006-1.2157-1.6588-2.7408-1.6588-4.5326v-52.782c0-0.78616 0.24799-1.433 0.73756-1.9225 0.36449-0.36449 0.82046-0.59605 1.355-0.68968l1.5194-0.003v-0.73828c0.0136-0.10649 0.0186-0.18939 0.0186-0.27801 0-0.0951-0.006-0.18511-0.0164-0.26873l-0.001-0.78687h-9.3553v2.0712h1.4801c0.44668 0.0822 0.86906 0.26229 1.295 0.53816 0.62464 0.40738 0.94053 1.1056 0.94053 2.0769v52.782c0 1.9718 0.58248 3.7471 1.731 5.278 1.5809 2.0733 3.7972 3.1246 6.5873 3.1246 2.9009 0 5.1736-1.0513 6.7574-3.1261 1.0899-1.5816 1.6452-3.3598 1.6452-5.2766v-52.782c0-1.5294 0.68181-2.4092 2.0269-2.6136l1.6045-0.002v-2.0712h-9.3553v0.77687c-0.0122 0.10721-0.0186 0.19011-0.0186 0.27873 0 0.0822 0.006 0.15866 0.0164 0.23085l0.002 0.78616z"/><path id="path43-7" d="m133.05 3.3603h1.4616c0.44668 0.0822 0.86906 0.26229 1.295 0.53816 0.62464 0.40666 0.94054 1.1056 0.94054 2.0769v52.782c0 1.7903-0.55818 3.3154-1.6588 4.5326-1.107 1.2228-2.6944 1.8432-4.717 1.8432-1.9683 0-3.5263-0.62036-4.6326-1.8432-1.1006-1.2157-1.6588-2.7408-1.6588-4.5326v-52.782c0-0.78616 0.248-1.433 0.73756-1.9225 0.36449-0.36449 0.82046-0.59605 1.355-0.68967l1.5194-0.003v-0.73828c0.0136-0.10648 0.0186-0.18939 0.0186-0.27801 0-0.0951-0.006-0.1851-0.0164-0.26872l-0.001-0.78688h-9.3553v2.0712h1.4801c0.44668 0.0822 0.86906 0.26229 1.295 0.53816 0.62464 0.40737 0.94054 1.1056 0.94054 2.0769v52.782c0 1.9718 0.58247 3.7471 1.731 5.278 1.5809 2.0733 3.7972 3.1246 6.5873 3.1246 2.9009 0 5.1736-1.0513 6.7574-3.126 1.0899-1.5816 1.6452-3.3598 1.6452-5.2766v-52.782c0-1.5294 0.68181-2.4092 2.0269-2.6136l1.6045-0.002v-2.0712h-9.3553v0.77687c-0.0122 0.1072-0.0186 0.1901-0.0186 0.27873 0 0.0822 0.006 0.15866 0.0164 0.23084l0.002 0.78616z"/><path id="path15-7" d="m320.93 64.666c-0.73613-0.42882-1.1121-1.1721-1.1121-2.2055v-45.73h12.667v45.73c0 0.78688-0.248 1.433-0.73756 1.9232-0.48956 0.48956-1.1364 0.73684-1.9225 0.73684h-2.5314v2.039h12.123v-2.0383h-2.2413c-1.0935 0-1.8232-0.30518-2.1705-0.90838-0.32733-0.56317-0.49242-1.1528-0.49242-1.7524v-54.048c0-1.9154-0.58319-3.6921-1.7338-5.2816-1.5809-2.0697-3.8264-3.1218-6.6695-3.1218-2.9531 0-5.1972 1.0499-6.6688 3.1203-1.0942 1.5866-1.6502 3.3648-1.6502 5.283v54.048c0 0.78688-0.24799 1.433-0.73756 1.9232-0.48956 0.48956-1.1364 0.73684-1.9225 0.73684h-2.3535v2.039h12.123v-2.0383h-2.4192c-0.54888-0.00072-1.0692-0.15366-1.5502-0.45526zm-1.11-56.254c0-1.7917 0.55817-3.3169 1.6588-4.5333 1.1056-1.2228 2.6644-1.8432 4.6319-1.8432 2.0233 0 3.6099 0.62036 4.717 1.8432 1.1013 1.2178 1.6588 2.743 1.6588 4.5333v6.2914h-12.666v-6.2914z"/><path id="path41-9" d="m391.2 3.3151h6.3372c0.78544 0 1.4322 0.248 1.9218 0.73756 0.49027 0.49028 0.73827 1.1371 0.73827 1.9225v56.498c0 0.78687-0.24871 1.4337-0.73827 1.9225-0.34949 0.34949-0.78902 0.57747-1.3057 0.67681l-1.6659 0.003-0.004 0.98771c-0.003 0.0572-0.001 0.0729 0 0.0879l0.004 0.0507v0.95768h9.3803v-2.084h-1.5008c-0.39451-0.0743-0.72827-0.20726-1.032-0.39808-0.73613-0.4281-1.1128-1.1714-1.1128-2.2055v-56.498c0-1.7403 0.91981-2.6601 2.6601-2.6601h6.2528v3.7536h2.0662v-5.7804h-24.069v5.7804h2.0654v-3.7521z"/></g></svg>
