<svg id="Layer_1" xmlns="http://www.w3.org/2000/svg" viewBox="0 0 188.9 60.2" style="enable-background:new 0 0 188.9 60.2"><style>.st0{fill:#eaeaea}</style><path class="st0" d="M128.4 35.5V25.4c0-.9-.3-2.1-1.4-2.1-2.9-.1-5.8-.2-8.8-.1-1.1 0-1.7.9-1.7 2-.1 2.4-.2 4.8-.2 7.2 0 .6.4 1.2.6 1.8.6-.2 1.2-.5 1.8-.7.3-.1.5-.4.8-.5 1.7-.7 2.1-2 1.9-3.8-.1-.8 0-1.6.1-2.3.1-.3.6-.8.9-.8.4 0 .9.4 1 .8.2.9.3 1.8.4 2.7.1 1.6-.6 2.8-2 3.5-1.2.6-2.3 1.5-3.5 2.2-1.1.7-1.7 1.7-1.8 2.9-.1 2.1-.1 4.2 0 6.3.1 2.1.8 2.8 2.9 2.9 2.6.1 5.2.1 7.8 0 1.4 0 1.8-.5 1.7-1.9-.2-3.4-.4-6.7-.5-10zm-4.8 7.6c-.1.4-.6 1-.9 1-.5-.1-1.4-.5-1.4-.8 0-1.5.1-2.9.3-4.4.1-.4.9-.7 1.4-1 .2.5.5.9.7 1.4.1.5 0 1 0 1.6.1.8.1 1.5-.1 2.2zM111.6 37.1c-.3.1-.5.4-.8.5-1.7.7-2.1 2-1.9 3.8.1.8 0 1.6-.1 2.3-.1.3-.6.8-.9.8-.4 0-.9-.4-1-.8-.2-.9-.3-1.8-.4-2.7-.1-1.6.6-2.8 2-3.5 1.2-.6 2.3-1.5 3.5-2.2 1.1-.7 1.7-1.7 1.8-2.9.1-2.1.1-4.2 0-6.3-.1-2.1-.8-2.8-2.9-2.9-2.6-.1-5.2-.1-7.8 0-1.4 0-1.8.5-1.7 1.9.2 3.3.3 6.7.5 10h.1v10.1c0 .9.3 2.1 1.4 2.1 2.9.1 5.8.2 8.8.1 1.1 0 1.7-.9 1.7-2 .1-2.4.2-4.8.2-7.2 0-.6-.4-1.2-.6-1.8-.7.2-1.3.5-1.9.7zm-5.1-7.5c0-.7 0-1.5.2-2.2.1-.4.6-1 .9-1 .5.1 1.4.5 1.4.8 0 1.5-.1 2.9-.3 4.4-.1.4-.9.7-1.4 1-.2-.5-.5-.9-.7-1.4-.2-.6-.1-1.1-.1-1.6zM141.4 23.1c-2.9-.1-5.8 0-8.8.1-1.1.1-1.4 1.2-1.4 2.1v16.4c0 1.4-.1 2.9-.3 4.3-.1 1.1.4 1.4 1.4 1.4h2.8c1.2.1 1.5-.7 1.3-1.6-1.1-5.1-.1-10.3-.4-15.5v-2c.1-.5.1-1 .3-1.5.1-.4.6-.7 1-.8.3 0 .8.4.9.8.2.8.2 1.6.1 2.3-.2 1.7.1 3 1.9 3.8.3.1.5.3.8.5.6.3 1.2.5 1.8.7.2-.6.6-1.2.6-1.8 0-2.4-.1-4.8-.2-7.2-.2-1-.7-1.9-1.8-2zM12.2 38.8c-.1-4.2 0-8.4 0-12.6 0-2.1-.6-3.2-2.3-3.2-2.5-.1-5.1 0-7.6.1-1.5.1-2 1.1-2.1 2.4-.1 1.8-.2 3.7-.2 5.6 0 1 .4 2.1.5 3.1.9-.4 1.8-.9 2.7-1.3 1.4-.7 1.8-1.9 1.7-3.4-.1-.8 0-1.6.2-2.3.1-.4.6-.7 1-1.1.3.4.8.7.9 1.1.2.6.4 1.4.4 2.1 0 1.5-.2 2.9-1.8 3.8-1.4.7-2.7 1.6-3.9 2.6C1 36.1.3 37 .3 37.9c-.2 2.4-.1 4.9 0 7.3.1 1.5.9 2.1 2.5 2.2h8.4c1.2 0 1.5-.6 1.4-1.7-.2-2.3-.4-4.6-.4-6.9zm-4.8 4.1c0 .8-.4 1.3-1.3 1.3s-1-.7-1.1-1.3c-.3-1.9-.5-3.8 1.4-5.1.2-.1.5-.2 1.1-.5-.1 2.1 0 3.9-.1 5.6zM25.8 22.8c-.7 0-1.3 0-2-.1-1.3-.1-1.6.6-1.5 1.7.1.9.3 1.8.3 2.7v13.4c0 .9-.2 1.7-.4 2.6-.1.4-.6.9-.9.9-.4-.1-.9-.5-1.1-.9-.3-.7-.4-1.5-.4-2.3.1-5.4.3-10.9.4-16.3 0-1-.3-1.7-1.5-1.7h-2.5c-1 0-1.5.4-1.4 1.4.1 1.1.3 2.2.3 3.3v17c0 2.1.6 2.7 2.8 2.8h.4c1.8 0 3.7.1 5.5 0 2.5-.1 3.1-.7 3.4-3.2v-.9-8c0-3.5.1-6.9.2-10.4.3-1.5 0-1.9-1.6-2zM73.9 28.1c0-1-.2-2.1-.3-3.1-.1-1-.7-1.5-1.6-1.6-.8-.1-1.7-.2-2.5-.2H55.9c-1.7 0-2 .4-1.7 2.1.1.6.1 1.3.1 2v4.6c-.1 4.6-.3 9.2-.5 13.8-.1 1.7.1 1.9 1.7 2 3.8.3 3.7.2 3.5-3.6-.2-5.2-.1-10.4-.1-15.7 0-.4.1-.9.4-1.2.2-.3.6-.6.9-.5.3 0 .8.3.9.6.2.6.3 1.2.3 1.8.1 4.6.1 9.2.1 13.8 0 .9-.1 1.7-.2 2.6-.2 1.4.3 2 1.7 2.2h.1c3.1.2 3.4-.2 3.3-3.3-.2-5.2-.2-10.4-.1-15.6 0-.9-.1-2.2 1.2-2.3 1.5-.1 1.3 1.3 1.3 2.3.1 3.1.1 6.2.1 9.4 0 2.2.1 4.4 0 6.5 0 1.1-.4 2.1-.6 3.2-.2.9.2 1.6 1.1 2.1.7.3 1.2.9 1.9 1.2.5.3 1.4.8 1.6.6.5-.4.7-1.1.8-1.8.1-1.3.1-2.6.1-4 .1-6 .1-11.9.1-17.9zM48.1 22.8H48c-1.5.2-2 .8-1.8 2.2.1.9.2 1.7.2 2.6v4.8c0 3.1 0 6.2-.1 9.4 0 .9.2 2.3-1.3 2.3-1.3-.1-1.2-1.4-1.2-2.3 0-5.2-.1-10.4.1-15.6.1-3.1-.2-3.6-3.3-3.3h-.1c-1.5.1-1.9.8-1.7 2.2.1.9.2 1.7.2 2.6 0 4.4-.1 8.8-.1 13.2v1.3c0 1.1 0 2.1.1 3.2.1 1.5.8 2.1 2.3 2.1h5.6c.8 0 1.7-.1 2.5-.2.9-.1 1.5-.7 1.6-1.6.1-1 .3-2.1.3-3.1 0-4.8.1-9.4.1-14.2v-.1c0-.6 0-1.3.1-1.9 0-3.3-.3-3.8-3.4-3.6zM88.8 42.9V32.1v-.4-1.1-.1-4.6c0-2.1-.6-2.7-2.8-2.8h-.4c-1.8 0-3.7-.1-5.5 0-2.5.1-3.1.7-3.4 3.2v8.9c0 1.8.1 4.4.1 6.2 0 1.5-.2 3.1-.5 4.6-.2.9.1 1.7 1.3 1.6.9-.1 1.8 0 2.8 0 1 0 1.5-.3 1.4-1.4-.1-1.4-.3-2.9-.3-4.3v-.6c0-3.6 0-7.9.1-11.5 0-.9.2-1.7.4-2.6.1-.4.6-.9.9-.9.4.1.9.5 1.1.9.3.7.4 1.5.4 2.3-.1 5.4-.3 10.9-.4 16.3 0 1 .3 1.7 1.5 1.7H88c1 0 1.5-.4 1.4-1.4-.4-1-.6-2.1-.6-3.2z"/><path class="st0" d="M185.5 41.7c-2.4-1.9-5-2.8-8.1-1.9-.7.2-1.2.5-1.6 1.3-.5 1.1-1.3 2-1.9 3-.2.4-.3 1-.1 1.3.1.2.8.3 1.2.2 1.6-.4 3.1-.9 4.6-1.5 2.3-1 4.6.5 5.4 2.7 1 2.9.1 5.8-2.3 7.8-2.1 1.8-4.4 3-7.2 2.4-3.1-.6-5.9-1.6-7.5-4.5-1.4-2.6-1.2-5.4-1.3-8V27.9c0-1-.2-2.1-.3-3.1-.1-1-.7-1.5-1.6-1.6-.8-.1-1.7-.2-2.5-.2H159v-1.4V20c1.3-.2 2.3-.4 2.8-.6.8-.3 1.3-1.1.8-2.1-.7 0-2-.1-3.5-.1v-5.4c0-1.2-.5-1.5-1.6-.9-.8.5-1.6 1.2-2.4 1.6-1.3.6-1.4 1.6-1.2 2.8.1.6.1 1.1.2 1.7-.9 0-1.6-.1-2-.1-1.2-.1-1.6-.7-1.6-1.8 0-1.8 0-1.2-.1-2.9-.1-1.5-.5-1.7-1.8-.9-.8.5-1.6 1.1-2.5 1.5-1.1.6-1.2 1.4-1.1 2.5.3 2.7.3 2.7-2.4 3.2-.3 0-.5.1-.8.1-1.5.4-2.9 1-4 2.8.7.1 1.2.3 1.8.4l4.2.3c.9.1 1.5.5 1.6 1.4.1.8.1 1.6.2 2.3v16.5c0 1.2-.2 2.4-.3 3.7 0 .9.4 1.5 1.4 1.4h2.8c.8 0 1.1-.3 1.1-1.2-.1-3 0-6.1 0-9.1l-.2-11.1v-.1c0-2.1.4-4.8 2.5-5.2.3-.1.8-.1 1.4-.2v4.1l.1 4v.3c.1 4.6.1 9.2.1 13.8 0 .9-.1 1.7-.2 2.6-.2 1.4.3 2 1.7 2.2h.1c3.1.2 3.4-.2 3.3-3.3-.2-5.2-.2-10.4-.1-15.6 0-.9-.1-2.2 1.2-2.3 1.5-.1 1.3 1.3 1.3 2.3.1 3.1.1 6.2.1 9.4 0 2.1.1 4.2 0 6.3.1 2.1.2 3.4.6 5 .4 2.2 1.4 4.4 2.9 6.2 3.3 3.8 7.7 5.2 12.7 4.8 1.5-.1 2.8-.7 4-1.6 2.4-1.8 4.5-3.8 5.9-6.5 1.7-3.7 1.1-7.7-2.5-10.5zM43.9 18.6c-1.9-.1-4.9.1-6.7 0-1.2-.1-1.8-.7-1.8-1.8V15v-.2c-.1-1.4-.2-2.5-.5-3.8-.4-2.2-1.4-4.4-2.9-6.2C28.7 1 24.2-.4 19.2.1c-1.5.1-2.8.7-4 1.6-2.4 1.8-4.5 3.8-5.9 6.5-1.8 3.5-1.1 7.5 2.5 10.3 2.4 1.9 5 2.8 8.1 1.9.7-.2 1.2-.5 1.6-1.3.5-1.1 1.3-2 1.9-3 .2-.4.3-1 .1-1.3-.1-.2-.8-.3-1.2-.2-1.6.4-3.1.9-4.6 1.5-2.3 1-4.6-.5-5.4-2.7-1-2.9-.1-5.8 2.3-7.8 2.1-1.8 4.4-3 7.2-2.4 3.1.6 6.3 1.6 7.9 4.5C31 9.9 31 12.4 31 14.6v.5c.1 2.7-.4 2.8-3.1 3.3-.3 0-.5.1-.8.1-1.5.4-2.9.3-4 2.1.7.1 1.2.3 1.8.4l4.2.3c.9.1 1.5.5 1.6 1.4.1.8.1 1.6.2 2.3v17.3c0 1.2-.2 2.4-.3 3.7 0 .9.4 1.5 1.4 1.4h2.8c.8 0 1.1-.3 1.1-1.2-.1-3 0-6.1 0-9.1l-.2-11.9v-.9c0-2.1.4-2.4 2.5-2.8 1.4-.3 3.8-.3 5-.8.8-.4 1.2-1.1.7-2.1z"/></svg>