<svg xmlns="http://www.w3.org/2000/svg" width="127" height="112" viewBox="0 0 451.6 398.3"><path d="M219.7 0C129.9-0.8 42.5 51.5 10.9 142.4-23.1 240.5 24.4 356.4 128.1 390 212.9 417.5 313 375.3 339.5 284 360.2 212.4 323.2 127.8 243.7 109.1c-29.2-6.9-59-2.5-84.9 11.8-25.9 14.4-48.3 41.7-52.9 76.1-3.1 23.3 2.1 44.6 15.4 64.2 13.3 19.6 41.7 37.4 72 33.5 26.7-3.4 34.5-12.5 46-29 5.7-8.3 12.6-21 10-39.5-0.7-5.2-2.5-10.2-5-14.9 9.6 12.7 13.4 31.2 8.6 47.7-11.2 38.5-57.9 58.2-97.2 45.4-52.5-17-78.2-79.8-59.9-132.4 23-66.1 101.9-97.9 167.8-73.9 79.7 29 117.4 124.1 87.6 203.3l84.2 31.7c47-124.6-11.8-272.5-141-319.6-24.4-8.9-49.7-13.3-74.8-13.5z" style="baseline-shift:baseline;block-progression:tb;color-interpolation-filters:linearRGB;color-interpolation:sRGB;color-rendering:auto;direction:ltr;font-family:sans-serif;font-size:medium;image-rendering:auto;isolation:auto;letter-spacing:normal;line-height:normal;mix-blend-mode:normal;shape-rendering:auto;solid-color:#000;solid-opacity:1;stroke-width:90;text-align:start;text-decoration-color:#000;text-decoration-line:none;text-decoration-style:solid;text-decoration:none;text-indent:0;text-rendering:auto;text-transform:none;white-space:normal;word-spacing:normal"/></svg>