<svg viewBox="0 0 92 92"
   height="92"
   width="92" xmlns='http://www.w3.org/2000/svg' preserveAspectRatio='none'><path stroke='#cbbc9f' stroke-width='2px' fill='#363636' vector-effect='non-scaling-stroke' d="m 90.411855,54.601397 c 0,-8.891463 -4.073483,-15.937529 -9.339205,-19.46056 0.09935,-0.503291 0.09935,-1.174345 0.09935,-1.677636 0,-15.601999 -8.743086,-27.177678 -18.777763,-27.177678 -1.887711,0 -3.67607,0.3355269 -5.365075,1.1743441 C 52.558269,3.7690713 46.895135,1.5881463 40.735233,1.5881463 h -0.298059 c -12.121096,0 -23.54672,8.7236997 -25.335078,22.3125387 -7.9482597,3.187506 -14.10816079,13.924367 -14.10816079,27.17768 0,16.10529 8.84243879,28.519786 19.07582279,28.519786 0.397413,0 0.794826,0 1.192239,-0.167764 1.390945,4.865141 4.967662,7.71712 8.544379,7.71712 1.887712,0 3.576717,-0.671055 5.067016,-1.845398 3.67607,3.690795 8.146965,5.703957 13.015275,5.703957 8.047612,0 15.3004,-5.871721 19.373882,-14.930947 1.589652,0.503289 3.179304,0.838818 4.868309,0.838818 9.438558,0 18.280997,-9.059228 18.280997,-22.31254 z"></path></svg>