<?xml version="1.0" encoding="UTF-8" standalone="no"?>
<!-- Generator: Adobe Illustrator 16.0.0, SVG Export Plug-In . SVG Version: 6.00 Build 0)  -->

<svg
   xmlns:dc="http://purl.org/dc/elements/1.1/"
   xmlns:cc="http://creativecommons.org/ns#"
   xmlns:rdf="http://www.w3.org/1999/02/22-rdf-syntax-ns#"
   xmlns:svg="http://www.w3.org/2000/svg"
   xmlns="http://www.w3.org/2000/svg"
   xmlns:sodipodi="http://sodipodi.sourceforge.net/DTD/sodipodi-0.dtd"
   xmlns:inkscape="http://www.inkscape.org/namespaces/inkscape"
   version="1.1"
   id="Layer_1"
   x="0px"
   y="0px"
   width="450.00241"
   height="67.159149"
   viewBox="0 0 450.00239 67.159151"
   enable-background="new 0 0 711.09 1554.792"
   xml:space="preserve"
   inkscape:version="0.91 r13725"
   sodipodi:docname="autumn-earth.svg"><metadata
     id="metadata59"><rdf:RDF><cc:Work
         rdf:about=""><dc:format>image/svg+xml</dc:format><dc:type
           rdf:resource="http://purl.org/dc/dcmitype/StillImage" /><dc:title></dc:title></cc:Work></rdf:RDF></metadata><defs
     id="defs57" /><sodipodi:namedview
     pagecolor="#ffffff"
     bordercolor="#666666"
     borderopacity="1"
     objecttolerance="10"
     gridtolerance="10"
     guidetolerance="10"
     inkscape:pageopacity="0"
     inkscape:pageshadow="2"
     inkscape:window-width="1920"
     inkscape:window-height="1153"
     id="namedview55"
     showgrid="false"
     inkscape:zoom="2.2766241"
     inkscape:cx="214.35626"
     inkscape:cy="-75.237388"
     inkscape:window-x="-4"
     inkscape:window-y="-4"
     inkscape:window-maximized="1"
     inkscape:current-layer="Layer_1"
     fit-margin-top="0"
     fit-margin-left="0"
     fit-margin-right="0"
     fit-margin-bottom="0" /><path
     d="m 161.51979,3.8516 c 0.62822,0.37736 0.94697,1.09133 0.94697,2.12334 l 0,56.49769 c 0,0.78616 -0.248,1.43296 -0.73756,1.92252 -0.45026,0.45025 -1.04559,0.69396 -1.77029,0.72541 l -1.20783,0 0,2.0383 9.589,0 0,-2.0383 -1.35076,0 c -0.50243,-0.03 -0.9634,-0.17939 -1.38293,-0.44311 -0.73613,-0.42881 -1.11277,-1.17209 -1.11277,-2.20553 l 0,-52.78202 c 0,-1.79173 0.55817,-3.31687 1.65951,-4.53328 1.04416,-1.15494 2.50285,-1.771 4.3346,-1.83103 l 0.37878,-0.009 c 1.98613,0.0164 3.54558,0.63607 4.63548,1.84032 1.10134,1.21784 1.6588,2.74298 1.6588,4.53328 l 0,52.78202 c -0.06,0.61106 -0.21084,1.12206 -0.44954,1.53944 -0.4524,0.67896 -1.10777,1.04774 -1.95682,1.10848 l -1.3086,7.2e-4 0,2.0383 9.589,0 0,-2.0383 -1.35077,0 c -0.50242,-0.03 -0.9634,-0.17939 -1.38364,-0.44311 -0.73613,-0.42881 -1.11277,-1.17209 -1.11277,-2.20553 l 0,-52.78202 c 0,-1.79173 0.55817,-3.31687 1.65951,-4.53328 1.10563,-1.22283 2.66365,-1.84318 4.63191,-1.84318 2.60576,0 4.45823,1.00342 5.5074,2.98383 0.52101,0.98413 0.78473,2.1262 0.78473,3.39263 l 0,52.78202 c 0,0.78616 -0.248,1.43295 -0.73756,1.92251 -0.44954,0.44954 -1.02058,0.69397 -1.69525,0.72541 l -1.19853,0 0,2.0383 9.589,0 0,-2.0383 -1.52301,0 c -0.91123,-0.0615 -1.56517,-0.4331 -1.95753,-1.10705 -0.24014,-0.41952 -0.39165,-0.93124 -0.44954,-1.52158 l -7.2e-4,-52.80202 c 0,-1.91466 -0.58319,-3.69209 -1.73312,-5.28085 -1.5809,-2.06974 -3.79787,-3.12176 -6.58516,-3.12176 -1.80816,0 -3.30544,0.35877 -4.44966,1.06631 -1.14636,0.71041 -2.06045,1.65165 -2.71439,2.79659 l -0.18296,0.32018 -0.18296,-0.32018 C 177.29586,4.00555 176.36891,3.06502 175.19468,2.3539 174.04045,1.65779 172.5832,1.29902 170.86365,1.2883 l -0.2094,-0.002 -12.03753,0 0,2.0383 1.33004,0 c 0.51815,0.0329 1.04345,0.2094 1.57303,0.52744 z"
     id="path7"
     style="fill:#000000"
     inkscape:connector-curvature="0" /><path
     d="m 219.64299,64.67889 c -0.73613,-0.42881 -1.11277,-1.17209 -1.11277,-2.20553 l 0,-52.78201 c 0,-1.79173 0.55817,-3.31688 1.6588,-4.53328 1.04416,-1.15494 2.50284,-1.77101 4.33459,-1.83104 l 0.30089,-0.005 0.21583,0.001 c 1.92181,0.0443 3.43623,0.66108 4.49826,1.83461 1.10134,1.21783 1.65951,2.74298 1.65951,4.53328 l 0,52.78201 c 0,0.78616 -0.24871,1.43295 -0.73827,1.92252 -0.44954,0.45025 -1.04559,0.69396 -1.77029,0.72541 l -1.22998,0 0,2.03829 9.589,0 0,-2.03829 -1.50014,0 c -0.91123,-0.06 -1.523,-0.36092 -1.83103,-0.89694 -0.32733,-0.56318 -0.49242,-1.15279 -0.49242,-1.7517 l 0,-52.78202 c 0,-1.91465 -0.58319,-3.69209 -1.73313,-5.28084 -1.54015,-2.01686 -3.71424,-3.06674 -6.46008,-3.11677 l -0.20726,-0.005 -12.03681,0 0,2.0383 1.18495,0 c 0.52244,0.0307 1.05346,0.22369 1.59019,0.57103 0.62464,0.40738 0.94053,1.10634 0.94053,2.07761 l 0,56.49769 c 0,0.78615 -0.248,1.43295 -0.73756,1.92251 -0.45025,0.45026 -1.04631,0.69397 -1.771,0.72541 l -1.20783,0 0,2.0383 9.589,0 0,-2.0383 -1.35077,0 c -0.50171,-0.0286 -0.96268,-0.17796 -1.38221,-0.44168 z"
     id="path9"
     style="fill:#000000"
     inkscape:connector-curvature="0" /><path
     d="M 8.1531707,64.66559 C 7.4170397,64.23678 7.0411127,63.4935 7.0411127,62.46006 l 0,-45.73017 12.6671683,0 0,45.73017 c 0,0.78687 -0.247997,1.43295 -0.73756,1.92323 -0.489563,0.48956 -1.136357,0.73684 -1.922516,0.73684 l -2.531433,0 0,2.03902 12.123289,0 0,-2.0383 -2.241268,0 c -1.093476,0 -1.823175,-0.30517 -2.170514,-0.90837 -0.327328,-0.56318 -0.492422,-1.1528 -0.492422,-1.75242 l 0,-54.04845 c 0,-1.91537 -0.583187,-3.69209 -1.733838,-5.28156 -1.580895,-2.06974 -3.826451,-3.12176 -6.669489,-3.12176 -2.9531,0 -5.1972273,1.04988 -6.6687743,3.12033 -1.09419,1.58661 -1.650219,3.36476 -1.650219,5.28299 l 0,54.04845 c 0,0.78687 -0.247998,1.43295 -0.737561,1.92323 -0.489562,0.48956 -1.136357,0.73684 -1.922516,0.73684 l -2.353474958789,0 0,2.03902 12.122575258789,0 0,-2.0383 -2.4192263,0 c -0.548882,-7.2e-4 -1.069177,-0.15366 -1.550163,-0.45526 z M 7.0411127,8.41161 c 0,-1.79173 0.558173,-3.31687 1.658796,-4.53328 1.105625,-1.22283 2.6643653,-1.84318 4.6319073,-1.84318 2.023288,0 3.6099,0.62035 4.716955,1.84318 1.101337,1.21783 1.658796,2.74298 1.658796,4.53328 l 0,6.29142 -12.6664543,0 0,-6.29142 z"
     id="path15"
     style="fill:#000000"
     inkscape:connector-curvature="0" /><path
     d="m 299.90975,66.09138 0,-3.63134 c 0,-0.7297 -0.32589,-1.05559 -1.05559,-1.05559 -0.67181,0 -0.97127,0.32589 -0.97127,1.05559 l 0,2.66079 -10.00709,0 c -1.09133,0 -1.82031,-0.30588 -2.16694,-0.90837 -0.32733,-0.56317 -0.49242,-1.15279 -0.49242,-1.7517 l 0,-45.73017 7.38346,0.015 0,-2.04187 -7.35201,0 -0.0315,-0.21083 0,-9.79698 c 0,-0.78615 0.248,-1.43295 0.73756,-1.92251 0.45025,-0.45026 1.04559,-0.69468 1.771,-0.72613 l 10.15861,-0.0114 0,3.7121 2.02614,0 0,-5.73896 -21.74802,0 0,2.03829 2.49856,0 c 0.52172,0.0315 1.05202,0.2237 1.58733,0.57175 0.62464,0.40666 0.94053,1.10563 0.94053,2.07689 l 0,57.76484 c 0,0.78687 -0.248,1.43367 -0.73756,1.92251 -0.48885,0.48957 -1.13564,0.73756 -1.92252,0.73756 l -2.24984,0 0,2.0383 20.57593,-0.0114 c 0.7297,-7.2e-4 1.05559,-0.32662 1.05559,-1.05632 z"
     id="path19"
     style="fill:#000000"
     inkscape:connector-curvature="0" /><path
     d="m 432.78765,64.65688 c -0.73613,-0.42882 -1.11277,-1.17209 -1.11277,-2.20553 l 0,-45.73017 12.66788,0 0,45.73017 c 0,0.78615 -0.24799,1.43295 -0.73756,1.92251 -0.4624,0.46241 -1.07561,0.70826 -1.82174,0.7297 l -1.21926,0 0,2.05402 9.43748,0 0,-2.05402 -1.19282,0 c -0.97269,-0.0414 -1.62449,-0.34377 -1.94538,-0.90051 -0.32662,-0.56318 -0.49243,-1.15279 -0.49243,-1.7517 l 0,-57.76484 c 0,-0.78616 0.248,-1.43295 0.73756,-1.92252 0.40309,-0.40308 0.92839,-0.64179 1.5616,-0.70897 l 1.33218,-10e-4 0,-2.05402 -9.43748,0 0,2.05474 1.42581,0 c 0.47884,0.0658 0.9441,0.25157 1.41223,0.55531 0.62463,0.40738 0.94053,1.10563 0.94053,2.07761 l 0,10.00709 -12.66789,0 0,-10.00709 c 0,-0.78688 0.24872,-1.43367 0.73756,-1.92252 0.40309,-0.40309 0.92839,-0.64179 1.5616,-0.70897 l 1.39508,-10e-4 0,-2.05474 -9.43677,0 0,2.05474 1.39436,0 c 0.65394,0.0686 1.17924,0.3066 1.58375,0.70968 0.48957,0.491 0.73756,1.13779 0.73756,1.92324 l 0,57.76483 c 0,0.78616 -0.24799,1.43295 -0.73756,1.92252 -0.46312,0.4624 -1.07632,0.70825 -1.82174,0.7297 l -1.15637,0 0,2.05401 9.43677,0 0,-2.05401 -1.14279,0 c -0.51815,-0.0207 -0.99985,-0.17153 -1.43939,-0.4474 z"
     id="path21"
     style="fill:#000000"
     inkscape:connector-curvature="0" /><path
     d="m 370.99086,64.22392 c -0.32661,-0.56317 -0.49242,-1.15279 -0.49242,-1.7517 l 0,-38.08727 c 0,-1.80745 -0.35878,-3.30473 -1.06632,-4.44966 -0.7104,-1.14708 -1.65165,-2.06046 -2.79658,-2.71511 l -0.30875,-0.17582 0.30232,-0.18653 c 1.14636,-0.70897 2.08975,-1.65236 2.8023,-2.8023 0.70754,-1.14493 1.06631,-2.61291 1.06631,-4.36461 0,-2.8995 -1.05202,-5.17293 -3.12677,-6.7574 -1.528,-1.09062 -3.30544,-1.64593 -5.27655,-1.64593 l -12.03396,0 0,2.0383 1.18496,0 c 0.52315,0.0307 1.05345,0.22369 1.59019,0.57175 0.62392,0.40737 0.94053,1.10562 0.94053,2.07689 l 0,56.49769 c 0,0.78687 -0.24871,1.43295 -0.73756,1.92251 -0.45097,0.45026 -1.04631,0.69468 -1.77101,0.72613 l -1.20782,0 0,2.03829 9.37387,0 0,-2.03829 -1.13564,0 c -0.50243,-0.0307 -0.96411,-0.17867 -1.38364,-0.44311 -0.73613,-0.42881 -1.11206,-1.17209 -1.11206,-2.20553 l 0,-44.46374 6.29142,0 c 1.78959,0 3.31473,0.55817 4.53328,1.65951 1.22284,1.10634 1.84319,2.69438 1.84319,4.71696 l 0,38.08727 c 0,0.78687 -0.24871,1.43295 -0.73756,1.92251 -0.45026,0.45026 -1.04559,0.69468 -1.77101,0.72613 l -1.20782,0 0,2.03829 9.37387,0 0,-2.03829 -1.30716,0 c -0.9098,-0.0593 -1.52158,-0.36092 -1.82961,-0.89694 z m -8.89575,-48.2423 -6.29142,0 0,-10.00709 c 0,-1.6688 0.85692,-2.58504 2.47926,-2.64864 l 0.008,0 3.80429,-0.0114 c 1.78959,0 3.31473,0.55817 4.53328,1.65951 1.22284,1.10634 1.84319,2.69367 1.84319,4.71696 0,2.60576 -1.00414,4.45823 -2.98383,5.50669 -0.98413,0.521 -2.12621,0.78401 -3.39264,0.78401 z"
     id="path37"
     style="fill:#000000"
     inkscape:connector-curvature="0" /><path
     d="m 81.948154,3.31507 6.33716,0 c 0.78544,0 1.43224,0.248 1.9218,0.73756 0.49028,0.49028 0.73827,1.13707 0.73827,1.92252 l 0,56.49769 c 0,0.78687 -0.24871,1.43366 -0.73827,1.92251 -0.34948,0.34949 -0.78902,0.57747 -1.30574,0.67681 l -1.66594,0.003 -0.004,0.98771 c -0.003,0.0572 -10e-4,0.0729 0,0.0879 l 0.004,0.0507 0,0.95768 9.38031,0 0,-2.08404 -1.50085,0 c -0.39451,-0.0743 -0.72827,-0.20726 -1.03202,-0.39808 -0.73613,-0.4281 -1.11277,-1.17138 -1.11277,-2.20553 l 0,-56.49769 c 0,-1.74027 0.91981,-2.66008 2.66008,-2.66008 l 6.252816,0 0,3.75355 2.06617,0 0,-5.78041 -24.068616,0 0,5.78041 2.06546,0 0,-3.75212 z"
     id="path41"
     style="fill:#000000"
     inkscape:connector-curvature="0" /><path
     d="m 53.831264,3.36034 1.46154,0 c 0.44668,0.0822 0.86907,0.26229 1.29502,0.53816 0.62464,0.40666 0.94053,1.10562 0.94053,2.07689 l 0,52.78201 c 0,1.7903 -0.55817,3.31545 -1.65879,4.53257 -1.10706,1.22283 -2.69438,1.84318 -4.71696,1.84318 -1.96825,0 -3.52628,-0.62035 -4.63262,-1.84318 -1.10062,-1.21569 -1.65879,-2.74084 -1.65879,-4.53257 l 0,-52.78201 c 0,-0.78616 0.24799,-1.43296 0.73756,-1.92252 0.36449,-0.36449 0.82046,-0.59605 1.35505,-0.68968 l 1.51943,-0.003 0,-0.73828 c 0.0136,-0.10649 0.0186,-0.18939 0.0186,-0.27801 0,-0.0951 -0.006,-0.18511 -0.0164,-0.26873 l -10e-4,-0.78687 -9.35529,0 0,2.07117 1.480123,0 c 0.446682,0.0822 0.869064,0.26229 1.295019,0.53816 0.624638,0.40738 0.940528,1.10563 0.940528,2.07689 l 0,52.78202 c 0,1.97183 0.58248,3.74712 1.73098,5.27798 1.5809,2.07332 3.79715,3.12463 6.5873,3.12463 2.90093,0 5.17365,-1.05131 6.7574,-3.12606 1.0899,-1.58161 1.64522,-3.35975 1.64522,-5.27655 l 0,-52.78202 c 0,-1.52943 0.68181,-2.40922 2.02686,-2.61362 l 1.60448,-0.002 0,-2.07118 -9.3553,0 0,0.77687 c -0.0122,0.10721 -0.0186,0.19011 -0.0186,0.27873 0,0.0822 0.006,0.15866 0.0164,0.23085 l 0.002,0.78616 z"
     id="path43"
     style="fill:#000000"
     inkscape:connector-curvature="0" /><path
     d="m 133.04997,3.36033 1.46155,0 c 0.44668,0.0822 0.86906,0.26229 1.29501,0.53816 0.62464,0.40666 0.94054,1.10563 0.94054,2.07689 l 0,52.78201 c 0,1.7903 -0.55818,3.31545 -1.6588,4.53257 -1.10705,1.22283 -2.69438,1.84319 -4.71695,1.84319 -1.96826,0 -3.52629,-0.62036 -4.63263,-1.84319 -1.10062,-1.21569 -1.65879,-2.74084 -1.65879,-4.53257 l 0,-52.78201 c 0,-0.78616 0.248,-1.43295 0.73756,-1.92252 0.36449,-0.36449 0.82046,-0.59605 1.35505,-0.68967 l 1.51943,-0.003 0,-0.73828 c 0.0136,-0.10648 0.0186,-0.18939 0.0186,-0.27801 0,-0.0951 -0.006,-0.1851 -0.0164,-0.26872 l -0.001,-0.78688 -9.3553,0 0,2.07118 1.48013,0 c 0.44668,0.0822 0.86906,0.26229 1.29501,0.53816 0.62464,0.40737 0.94054,1.10562 0.94054,2.07689 l 0,52.78201 c 0,1.97183 0.58247,3.74712 1.73098,5.27799 1.58089,2.07331 3.79715,3.12462 6.5873,3.12462 2.90092,0 5.17364,-1.05131 6.75739,-3.12605 1.0899,-1.58161 1.64522,-3.35976 1.64522,-5.27656 l 0,-52.78201 c 0,-1.52944 0.68181,-2.40922 2.02686,-2.61363 l 1.60448,-0.002 0,-2.07117 -9.3553,0 0,0.77687 c -0.0122,0.1072 -0.0186,0.1901 -0.0186,0.27873 0,0.0822 0.006,0.15866 0.0164,0.23084 l 0.002,0.78616 z"
     id="path43-7"
     style="fill:#000000"
     inkscape:connector-curvature="0" /><path
     d="m 320.93156,64.6656 c -0.73613,-0.42882 -1.11206,-1.17209 -1.11206,-2.20554 l 0,-45.73016 12.66717,0 0,45.73016 c 0,0.78688 -0.248,1.43296 -0.73756,1.92324 -0.48956,0.48956 -1.13636,0.73684 -1.92252,0.73684 l -2.53143,0 0,2.03901 12.12329,0 0,-2.03829 -2.24127,0 c -1.09347,0 -1.82317,-0.30518 -2.17051,-0.90838 -0.32733,-0.56317 -0.49242,-1.15279 -0.49242,-1.75242 l 0,-54.04844 c 0,-1.91537 -0.58319,-3.69209 -1.73384,-5.28156 -1.5809,-2.06974 -3.82645,-3.12177 -6.66949,-3.12177 -2.9531,0 -5.19723,1.04988 -6.66878,3.12034 -1.09419,1.58661 -1.65022,3.36476 -1.65022,5.28299 l 0,54.04844 c 0,0.78688 -0.24799,1.43296 -0.73756,1.92324 -0.48956,0.48956 -1.13635,0.73684 -1.92251,0.73684 l -2.35348,0 0,2.03901 12.12258,0 0,-2.03829 -2.41923,0 c -0.54888,-7.2e-4 -1.06917,-0.15366 -1.55016,-0.45526 z M 319.8195,8.41162 c 0,-1.79173 0.55817,-3.31688 1.6588,-4.53328 1.10562,-1.22283 2.66436,-1.84319 4.6319,-1.84319 2.02329,0 3.6099,0.62036 4.71696,1.84319 1.10134,1.21783 1.65879,2.74298 1.65879,4.53328 l 0,6.29142 -12.66645,0 0,-6.29142 z"
     id="path15-7"
     style="fill:#000000"
     inkscape:connector-curvature="0" /><path
     d="m 391.20443,3.31507 6.33716,0 c 0.78544,0 1.43223,0.248 1.9218,0.73756 0.49027,0.49028 0.73827,1.13707 0.73827,1.92252 l 0,56.49769 c 0,0.78687 -0.24871,1.43367 -0.73827,1.92251 -0.34949,0.34949 -0.78902,0.57747 -1.30574,0.67681 l -1.66594,0.003 -0.004,0.98771 c -0.003,0.0572 -10e-4,0.0729 0,0.0879 l 0.004,0.0507 0,0.95768 9.3803,0 0,-2.08404 -1.50084,0 c -0.39451,-0.0743 -0.72827,-0.20726 -1.03202,-0.39808 -0.73613,-0.4281 -1.11277,-1.17138 -1.11277,-2.20553 l 0,-56.49769 c 0,-1.74027 0.91981,-2.66008 2.66008,-2.66008 l 6.25282,0 0,3.75356 2.06617,0 0,-5.78042 -24.06862,0 0,5.78042 2.06545,0 0,-3.75213 z"
     id="path41-9"
     style="fill:#000000"
     inkscape:connector-curvature="0" /></svg>