<?xml version="1.0" encoding="UTF-8" standalone="no"?>
<!-- Generator: Adobe Illustrator 16.0.0, SVG Export Plug-In . SVG Version: 6.00 Build 0)  -->

<svg
   xmlns:dc="http://purl.org/dc/elements/1.1/"
   xmlns:cc="http://creativecommons.org/ns#"
   xmlns:rdf="http://www.w3.org/1999/02/22-rdf-syntax-ns#"
   xmlns:svg="http://www.w3.org/2000/svg"
   xmlns="http://www.w3.org/2000/svg"
   xmlns:sodipodi="http://sodipodi.sourceforge.net/DTD/sodipodi-0.dtd"
   xmlns:inkscape="http://www.inkscape.org/namespaces/inkscape"
   version="1.1"
   id="Layer_1"
   x="0px"
   y="0px"
   width="711.09px"
   height="1554.792px"
   viewBox="0 0 711.09 1554.792"
   enable-background="new 0 0 711.09 1554.792"
   xml:space="preserve"
   inkscape:version="0.91 r13725"
   sodipodi:docname="jekyll_hyde_font_tanoveron.svg"><metadata
     id="metadata59"><rdf:RDF><cc:Work
         rdf:about=""><dc:format>image/svg+xml</dc:format><dc:type
           rdf:resource="http://purl.org/dc/dcmitype/StillImage" /><dc:title></dc:title></cc:Work></rdf:RDF></metadata><defs
     id="defs57" /><sodipodi:namedview
     pagecolor="#ffffff"
     bordercolor="#666666"
     borderopacity="1"
     objecttolerance="10"
     gridtolerance="10"
     guidetolerance="10"
     inkscape:pageopacity="0"
     inkscape:pageshadow="2"
     inkscape:window-width="1920"
     inkscape:window-height="1153"
     id="namedview55"
     showgrid="false"
     inkscape:zoom="0.15178879"
     inkscape:cx="355.54501"
     inkscape:cy="777.396"
     inkscape:window-x="-4"
     inkscape:window-y="-4"
     inkscape:window-maximized="1"
     inkscape:current-layer="Layer_1" /><path
     fill="#FFFFFF"
     d="M242,892.295c4.134,0,7.273-1.468,9.33-4.365c1.532-2.221,2.309-4.708,2.309-7.392v-68.654  c0-2.679-0.816-5.166-2.425-7.389c-2.212-2.896-5.314-4.368-9.214-4.368c-4.059,0-7.24,1.472-9.455,4.374  c-1.525,2.212-2.302,4.7-2.302,7.383v68.654c0,2.759,0.815,5.244,2.422,7.385C234.877,890.824,238.019,892.295,242,892.295z   M233.079,811.884c0-2.507,0.781-4.641,2.321-6.343c1.547-1.711,3.768-2.579,6.6-2.579c3.646,0,6.238,1.404,7.706,4.175  c0.729,1.377,1.098,2.974,1.098,4.747v68.654c0,2.505-0.781,4.639-2.321,6.343c-1.549,1.711-3.73,2.578-6.482,2.578  c-2.833,0-5.053-0.867-6.6-2.578c-1.54-1.702-2.321-3.836-2.321-6.343V811.884z"
     id="path3"
     style="fill:#000000" /><path
     fill="#FFFFFF"
     d="M321.817,811.884c0-4.057-1.472-7.238-4.374-9.455c-2.125-1.464-4.515-2.238-7.09-2.292l-0.293-0.011  h-16.838v2.852h1.658c0.732,0.043,1.474,0.313,2.225,0.799c0.874,0.57,1.316,1.548,1.316,2.907v79.052c0,1.1-0.347,2.005-1.032,2.69  c-0.63,0.63-1.464,0.971-2.478,1.015l-1.69,0v2.852h13.097v-1.162c0.011-0.121,0.02-0.213,0.02-0.314  c0-0.093-0.009-0.178-0.018-0.263l-0.002-1.112h-1.57c-0.702-0.042-1.347-0.251-1.935-0.62c-1.03-0.6-1.557-1.64-1.557-3.086  v-62.214h8.803c2.68,0,5.166-0.816,7.389-2.425C320.346,818.888,321.817,815.787,321.817,811.884z M314.807,819.59  c-1.376,0.729-2.974,1.098-4.747,1.098h-8.803v-14.002c0-2.336,1.199-3.617,3.468-3.706l0.011,0l5.631-0.004  c2.377,0.062,4.409,0.839,6.036,2.31c1.711,1.549,2.579,3.77,2.579,6.6C318.981,815.53,317.577,818.123,314.807,819.59z"
     id="path5"
     style="fill:#000000" /><path
     fill="#FFFFFF"
     d="M75.028,803.714c0.879,0.528,1.325,1.527,1.325,2.971v79.052c0,1.1-0.347,2.005-1.032,2.69  c-0.63,0.63-1.463,0.971-2.477,1.015l-1.69,0v2.852h13.417v-2.852h-1.89c-0.703-0.042-1.348-0.251-1.935-0.62  c-1.03-0.6-1.557-1.64-1.557-3.086v-73.853c0-2.507,0.781-4.641,2.322-6.343c1.461-1.616,3.502-2.478,6.065-2.562l0.53-0.013  c2.779,0.023,4.961,0.89,6.486,2.575c1.541,1.704,2.321,3.838,2.321,6.343v73.853c-0.084,0.855-0.295,1.57-0.629,2.154  c-0.633,0.95-1.55,1.466-2.738,1.551l-1.831,0.001v2.852h13.417v-2.852h-1.89c-0.703-0.042-1.348-0.251-1.936-0.62  c-1.03-0.6-1.557-1.64-1.557-3.086v-73.853c0-2.507,0.781-4.641,2.322-6.343c1.547-1.711,3.727-2.579,6.481-2.579  c3.646,0,6.238,1.404,7.706,4.175c0.729,1.377,1.098,2.975,1.098,4.747v73.853c0,1.1-0.347,2.005-1.032,2.69  c-0.629,0.629-1.428,0.971-2.372,1.015l-1.677,0v2.852h13.417v-2.852h-2.131c-1.275-0.086-2.19-0.606-2.739-1.549  c-0.336-0.587-0.548-1.303-0.629-2.129l-0.001-73.881c0-2.679-0.816-5.166-2.425-7.389c-2.212-2.896-5.314-4.368-9.214-4.368  c-2.53,0-4.625,0.502-6.226,1.492c-1.604,0.994-2.883,2.311-3.798,3.913l-0.256,0.448l-0.256-0.448  c-0.915-1.601-2.212-2.917-3.855-3.912c-1.615-0.974-3.654-1.476-6.06-1.491l-0.293-0.003H70.966v2.852h1.861  C73.552,803.022,74.287,803.269,75.028,803.714z"
     id="path7"
     style="fill:#000000" /><path
     fill="#FFFFFF"
     d="M168.939,888.823c-1.03-0.6-1.557-1.64-1.557-3.086v-73.853c0-2.507,0.781-4.641,2.321-6.343  c1.461-1.616,3.502-2.478,6.065-2.562l0.421-0.007l0.302,0.002c2.689,0.062,4.808,0.925,6.294,2.567  c1.541,1.704,2.322,3.838,2.322,6.343v73.853c0,1.1-0.348,2.005-1.033,2.69c-0.629,0.63-1.463,0.971-2.477,1.015l-1.721,0v2.852  h13.417v-2.852h-2.099c-1.275-0.084-2.131-0.505-2.562-1.255c-0.458-0.788-0.689-1.613-0.689-2.451v-73.853  c0-2.679-0.816-5.166-2.425-7.389c-2.155-2.822-5.197-4.291-9.039-4.361l-0.29-0.007h-16.842v2.852h1.658  c0.731,0.043,1.474,0.313,2.225,0.799c0.874,0.57,1.316,1.548,1.316,2.907v79.052c0,1.1-0.347,2.005-1.032,2.69  c-0.63,0.63-1.464,0.971-2.478,1.015l-1.69,0v2.852h13.417v-2.852h-1.89C170.171,889.401,169.526,889.192,168.939,888.823z"
     id="path9"
     style="fill:#000000" /><path
     fill="#FFFFFF"
     d="M242.85,488.392c0-0.94-0.418-1.359-1.359-1.359c-1.021,0-1.477,0.419-1.477,1.359  c0,2.505-0.781,4.639-2.321,6.343c-1.549,1.711-3.73,2.579-6.482,2.579c-2.833,0-5.053-0.868-6.6-2.579  c-1.54-1.702-2.321-3.835-2.321-6.343v-70.426c0-2.506,0.781-4.641,2.321-6.342c1.547-1.711,3.768-2.579,6.6-2.579  c2.829,0,5.03,0.848,6.541,2.52c1.501,1.666,2.262,3.859,2.262,6.52c0.065,0.852,0.521,1.241,1.477,1.241  c0.508,0,0.918-0.286,1.255-0.873l0.109-0.544l-0.006-10.223c0-0.997-0.4-1.451-1.298-1.472l-0.203-0.005l-9.585,0.021  c-0.182-0.01-0.364-0.021-0.553-0.021c-4.058,0-7.24,1.472-9.455,4.374c-1.525,2.211-2.302,4.699-2.302,7.383v70.426  c0,2.759,0.814,5.244,2.422,7.385c2.212,2.9,5.354,4.372,9.335,4.372c4.133,0,7.273-1.469,9.331-4.366  C242.073,493.563,242.85,491.075,242.85,488.392z"
     id="path11"
     style="fill:#000000" /><path
     fill="#FFFFFF"
     d="M312.527,408.495c-2.214-1.525-4.702-2.303-7.383-2.303l-18.656,0v2.852h3.479  c0.73,0.044,1.471,0.313,2.222,0.799c0.874,0.57,1.316,1.547,1.316,2.907v80.824c0,0.762-0.214,1.491-0.636,2.165  c-0.691,1.036-1.728,1.557-3.086,1.557h-3.294v2.852l18.656-0.016c3.979,0,7.121-1.471,9.336-4.374  c1.606-2.14,2.421-4.625,2.421-7.383V417.95C316.901,413.893,315.43,410.711,312.527,408.495z M314.065,488.376  c0,2.504-0.781,4.639-2.321,6.343c-1.549,1.711-3.769,2.579-6.6,2.579h-5.081c-0.765,0-1.493-0.214-2.166-0.636  c-1.03-0.599-1.556-1.64-1.556-3.086v-80.824c0-2.334,1.198-3.616,3.464-3.706l0.453-0.017h4.886c2.505,0,4.639,0.781,6.343,2.321  c1.711,1.549,2.579,3.77,2.579,6.601V488.376z"
     id="path13"
     style="fill:#000000" /><path
     fill="#FFFFFF"
     d="M82.846,496.661c-1.03-0.6-1.556-1.64-1.556-3.086v-63.986h17.724v63.986c0,1.101-0.347,2.005-1.032,2.691  c-0.685,0.685-1.59,1.031-2.69,1.031h-3.542v2.853h16.963v-2.852h-3.136c-1.53,0-2.551-0.427-3.037-1.271  c-0.458-0.788-0.689-1.613-0.689-2.452V417.95c0-2.68-0.816-5.166-2.426-7.39c-2.212-2.896-5.354-4.368-9.332-4.368  c-4.132,0-7.272,1.469-9.331,4.366c-1.531,2.22-2.309,4.708-2.309,7.392v75.625c0,1.101-0.347,2.005-1.032,2.691  c-0.685,0.685-1.59,1.031-2.69,1.031h-3.293v2.853H88.4v-2.852h-3.385C84.247,497.297,83.519,497.083,82.846,496.661z M81.29,417.95  c0-2.507,0.781-4.641,2.321-6.343c1.547-1.711,3.728-2.579,6.481-2.579c2.831,0,5.051,0.868,6.6,2.579  c1.541,1.704,2.321,3.838,2.321,6.343v8.803H81.29V417.95z"
     id="path15"
     style="fill:#000000" /><path
     fill="#FFFFFF"
     d="M173.396,495.759c1.605-2.14,2.42-4.625,2.42-7.383v-49.865c0-2.607-0.501-4.721-1.491-6.282  c-0.993-1.565-2.348-2.823-4.027-3.739l-0.457-0.249l0.448-0.265c1.682-0.993,3.039-2.312,4.035-3.918  c0.99-1.602,1.492-3.656,1.492-6.107c0-4.057-1.472-7.239-4.374-9.455c-2.215-1.525-4.702-2.303-7.383-2.303h-18.648v2.852h3.467  c0.732,0.044,1.474,0.312,2.225,0.8c0.873,0.57,1.316,1.547,1.316,2.907v14.002h0.003l-0.003,2.852l0,0v63.97  c0,1.1-0.347,2.006-1.032,2.69c-0.684,0.685-1.59,1.032-2.69,1.032h-3.287v2.852l18.648-0.016  C168.04,500.133,171.181,498.662,173.396,495.759z M155.256,412.751c0-2.336,1.2-3.618,3.469-3.706l0.567-0.017h4.768  c2.504,0,4.638,0.781,6.342,2.321c1.711,1.549,2.579,3.77,2.579,6.601c0,3.646-1.405,6.238-4.175,7.705  c-1.376,0.729-2.974,1.098-4.746,1.098h-8.804V412.751z M156.813,496.661c-1.03-0.599-1.557-1.64-1.557-3.086v-63.986h8.804  c2.505,0,4.638,0.781,6.342,2.321c1.711,1.549,2.579,3.769,2.579,6.6v49.865c0,2.504-0.781,4.639-2.322,6.343  c-1.549,1.711-3.769,2.579-6.6,2.579h-5.082C158.214,497.297,157.485,497.083,156.813,496.661z"
     id="path17"
     style="fill:#000000" /><path
     fill="#FFFFFF"
     d="M175.318,629.675v-5.081c0-1.021-0.456-1.477-1.477-1.477c-0.94,0-1.359,0.456-1.359,1.477v3.723h-14.002  c-1.527,0-2.547-0.428-3.032-1.271c-0.458-0.788-0.689-1.613-0.689-2.451v-63.986l10.331,0.021v-2.857h-10.287l-0.044-0.295v-13.708  c0-1.1,0.347-2.005,1.032-2.69c0.63-0.63,1.463-0.972,2.478-1.016l14.214-0.016l0,5.194h2.835v-8.03h-30.43v2.852h3.496  c0.73,0.044,1.472,0.313,2.221,0.8c0.874,0.569,1.316,1.547,1.316,2.906v80.825c0,1.101-0.347,2.006-1.032,2.69  c-0.684,0.685-1.589,1.032-2.69,1.032h-3.148v2.852l28.79-0.016C174.862,631.152,175.318,630.696,175.318,629.675z"
     id="path19"
     style="fill:#000000" /><path
     fill="#FFFFFF"
     d="M297.447,627.669c-1.03-0.6-1.557-1.64-1.557-3.086v-63.986h17.725v63.986c0,1.1-0.347,2.005-1.032,2.69  c-0.647,0.647-1.505,0.991-2.549,1.021h-1.706v2.874h13.205v-2.874h-1.669c-1.361-0.058-2.273-0.481-2.722-1.26  c-0.457-0.788-0.689-1.613-0.689-2.451v-80.825c0-1.1,0.347-2.005,1.032-2.69c0.564-0.564,1.299-0.898,2.185-0.992l1.864-0.002  V537.2h-13.205v2.875h1.995c0.67,0.092,1.321,0.352,1.976,0.777c0.874,0.57,1.316,1.547,1.316,2.907v14.002h-17.725v-14.002  c0-1.101,0.348-2.006,1.032-2.69c0.564-0.564,1.299-0.898,2.185-0.992l1.952-0.002V537.2h-13.204v2.875h1.951  c0.915,0.096,1.65,0.429,2.216,0.993c0.685,0.687,1.032,1.592,1.032,2.691v80.825c0,1.1-0.347,2.005-1.032,2.69  c-0.648,0.647-1.506,0.991-2.549,1.021h-1.618v2.874h13.204v-2.874h-1.599C298.736,628.266,298.062,628.055,297.447,627.669z"
     id="path21"
     style="fill:#000000" /><path
     fill="#FFFFFF"
     d="M228.787,631.132l0.281,0.036h17.337v-2.852h-1.468c-0.774-0.001-1.502-0.215-2.175-0.637  c-1.03-0.6-1.557-1.64-1.557-3.086V564.33c0-1.101,0.348-2.006,1.032-2.69c0.614-0.615,1.426-0.955,2.413-1.011l2.336,0v-2.857  h-18.901v2.857h7.023c1.221,0.108,2.133,0.622,2.738,1.528c0.35,0.615,0.522,1.34,0.522,2.173v55.065  c0,2.505-0.78,4.639-2.321,6.343c-1.549,1.711-3.73,2.578-6.482,2.578c-2.833,0-5.053-0.868-6.601-2.578  c-1.541-1.702-2.321-3.836-2.321-6.343v-70.426c0-2.507,0.781-4.641,2.322-6.343c1.547-1.711,3.768-2.579,6.6-2.579  c4.377,0,7.215,1.938,8.435,5.76c0.043,0.082,0.135,0.334,0.247,1.111c0.033,0.235,0.066,0.504,0.1,0.795l0.002,2.59h1.106  c0.148,0.017,0.266,0.024,0.391,0.024c0.071-0.014,0.103-0.019,0.134-0.022l1.205-0.002l0.019-11.615  c0-0.097-0.009-0.186-0.017-0.274l-0.002-1.202l-11.233,0.014c-0.127-0.007-0.254-0.014-0.387-0.014  c-3.981,0-7.122,1.472-9.336,4.374c-1.605,2.218-2.421,4.704-2.421,7.383v70.426c0,2.759,0.815,5.243,2.423,7.385  C222.298,629.489,225.177,630.954,228.787,631.132z"
     id="path23"
     style="fill:#000000" /><path
     fill="#FFFFFF"
     d="M82.493,543.769c0-1.101,0.347-2.006,1.032-2.69c0.628-0.629,1.461-0.971,2.474-1.016l14.219-0.017v5.194  h2.836v-8.03l-30.492,0v2.852h3.558c0.73,0.044,1.472,0.312,2.221,0.799c0.874,0.57,1.316,1.548,1.316,2.907v80.825  c0,0.762-0.214,1.49-0.636,2.165c-0.691,1.036-1.728,1.557-3.086,1.557l-3.355,0.001v2.852h16.962v-2.852h-3.318  c-0.773-0.001-1.502-0.215-2.175-0.637c-1.029-0.599-1.556-1.64-1.556-3.086v-63.965h10.287v-2.857H82.493V543.769z"
     id="path25"
     style="fill:#000000" /><path
     fill="#FFFFFF"
     d="M319.017,760.705v-5.081c0-1.021-0.456-1.478-1.477-1.478c-0.94,0-1.359,0.456-1.359,1.478v3.722  l-14.473-0.016c-1.275-0.084-2.131-0.506-2.562-1.255c-0.457-0.789-0.689-1.613-0.689-2.451v-80.825  c0-1.101,0.347-2.006,1.032-2.691c0.629-0.63,1.463-0.972,2.478-1.015h1.731v-2.852H290.28v2.852h1.799  c0.73,0.043,1.474,0.312,2.225,0.8c0.874,0.57,1.316,1.547,1.316,2.906v80.825c0,0.762-0.213,1.49-0.636,2.165  c-0.627,0.939-1.544,1.455-2.732,1.54l-1.972,0.001v2.852h27.259C318.561,762.182,319.017,761.726,319.017,760.705z"
     id="path27"
     style="fill:#000000" /><path
     fill="#FFFFFF"
     d="M81.261,672.599c0.35,0.614,0.522,1.34,0.522,2.173v80.824c0,1.101-0.347,2.006-1.031,2.69  c-0.648,0.648-1.506,0.992-2.55,1.021h-1.543v2.875h13.204v-2.875h-1.651c-0.74-0.029-1.499-0.278-2.268-0.74  c-0.878-0.527-1.325-1.526-1.325-2.972v-80.824c0-0.766,0.274-1.575,0.816-2.407c0.471-0.724,1.233-1.153,2.266-1.275l2.161-0.001  v-2.875H76.658v2.874h1.998C79.817,671.224,80.682,671.732,81.261,672.599z"
     id="path29"
     style="fill:#000000" /><path
     fill="#FFFFFF"
     d="M241.832,679.999v-5.199c0-2.317,1.182-3.597,3.418-3.703l1.663,0v-2.874h-13.205v2.874h1.782  c0.724,0.051,1.454,0.319,2.189,0.797c0.874,0.569,1.316,1.547,1.316,2.906v5.199c0,3.646-1.404,6.238-4.175,7.705  c-1.376,0.729-2.974,1.098-4.747,1.098c-1.843,0-3.453,0.29-4.787,0.862c-1.337,0.572-2.519,1.366-3.512,2.359l-0.504,0.504v-17.729  c0-1.101,0.347-2.006,1.032-2.691c0.62-0.619,1.439-0.96,2.437-1.012l1.682,0v-2.874h-13.204v2.874h1.712  c0.724,0.051,1.454,0.319,2.189,0.797c0.874,0.57,1.316,1.547,1.316,2.906v80.825c0,0.762-0.214,1.49-0.636,2.165  c-0.583,0.874-1.418,1.381-2.487,1.516l-2.095,0.002v2.875h13.204v-2.875H224.3c-1.161-0.12-1.938-0.534-2.34-1.232  c-0.458-0.789-0.69-1.613-0.69-2.451V700.56c0-2.507,0.781-4.642,2.322-6.344c1.546-1.71,3.728-2.578,6.481-2.578  c2.831,0,5.051,0.868,6.6,2.578c1.541,1.705,2.321,3.838,2.321,6.344v55.064c0,1.1-0.347,2.005-1.031,2.69  c-0.563,0.563-1.299,0.898-2.184,0.992l-2.072,0.002v2.875h13.205v-2.875h-2.052c-1.161-0.12-1.938-0.534-2.34-1.232  c-0.458-0.788-0.689-1.613-0.689-2.451V700.56c0-1.838-0.429-3.725-1.274-5.611c-0.839-1.865-2.23-3.39-4.137-4.535l-0.44-0.265  l0.45-0.248c1.523-0.837,2.818-2.115,3.85-3.795C241.31,684.43,241.832,682.375,241.832,679.999z"
     id="path31"
     style="fill:#000000" /><path
     fill="#FFFFFF"
     d="M157.826,671.893c0.874,0.57,1.316,1.548,1.316,2.906v75.625c0,2.505-0.781,4.639-2.321,6.342  c-1.549,1.712-3.729,2.58-6.481,2.58c-0.062,0-0.122-0.002-0.182-0.004l-0.789-0.034c-3.838-0.277-6.342-2.202-7.465-5.722  c-0.282-0.773-0.443-1.749-0.474-2.89v-1.631h-2.848v11.64c0,0.9,0.37,1.363,1.164,1.456l0.181,0.021l10.138-0.012  c0.047,0.001,0.093,0.003,0.14,0.006c0.044,0.002,0.088,0.005,0.135,0.005c4.134,0,7.272-1.469,9.33-4.366  c1.531-2.22,2.309-4.708,2.309-7.391v-75.625c0-0.765,0.274-1.575,0.816-2.407c0.471-0.724,1.233-1.153,2.266-1.275l2.592-0.001  v-2.875h-14.154v2.874h2.352C156.52,671.207,157.171,671.468,157.826,671.893z"
     id="path33"
     style="fill:#000000" /><path
     fill="#FFFFFF"
     d="M97.976,1020.058c0.294-0.321,0.576-0.669,0.835-1.035c1.531-2.22,2.309-4.708,2.309-7.391v-68.653  c0-2.68-0.816-5.166-2.425-7.39c-2.212-2.896-5.313-4.368-9.214-4.368c-4.059,0-7.24,1.472-9.455,4.375  c-1.525,2.211-2.303,4.699-2.303,7.383v68.653c0,2.759,0.815,5.243,2.423,7.385c2.2,2.885,5.322,4.357,9.276,4.371l0.294,0.001  h17.475v-2.836h-9.67L97.976,1020.058z M89.48,1020.553c-2.832,0-5.053-0.868-6.6-2.579c-1.54-1.702-2.321-3.836-2.321-6.343  v-68.653c0-2.507,0.781-4.641,2.322-6.343c1.547-1.711,3.768-2.579,6.6-2.579c3.646,0,6.238,1.405,7.706,4.175  c0.729,1.377,1.098,2.974,1.098,4.747v68.653c0,2.505-0.781,4.639-2.321,6.343C94.413,1019.686,92.232,1020.553,89.48,1020.553z"
     id="path35"
     style="fill:#000000" /><path
     fill="#FFFFFF"
     d="M175.556,1019.282c-0.457-0.788-0.689-1.613-0.689-2.451v-53.292c0-2.529-0.502-4.624-1.492-6.226  c-0.994-1.605-2.311-2.883-3.913-3.799l-0.432-0.246l0.423-0.261c1.604-0.992,2.924-2.312,3.921-3.921  c0.99-1.602,1.492-3.656,1.492-6.107c0-4.057-1.472-7.238-4.375-9.455c-2.138-1.526-4.625-2.303-7.383-2.303h-16.838v2.852h1.658  c0.732,0.043,1.474,0.313,2.225,0.8c0.873,0.57,1.316,1.547,1.316,2.906v79.052c0,1.101-0.348,2.005-1.032,2.69  c-0.631,0.63-1.464,0.972-2.478,1.016h-1.69v2.852h13.116v-2.852h-1.589c-0.703-0.043-1.349-0.25-1.936-0.62  c-1.03-0.6-1.556-1.64-1.556-3.086v-62.214h8.803c2.504,0,4.638,0.781,6.343,2.322c1.711,1.548,2.579,3.77,2.579,6.6v53.292  c0,1.101-0.348,2.005-1.032,2.69c-0.63,0.63-1.463,0.972-2.478,1.016h-1.69v2.852h13.116v-2.852h-1.829  C176.843,1020.454,175.987,1020.032,175.556,1019.282z M163.109,951.781h-8.803v-14.002c0-2.335,1.199-3.617,3.469-3.706l0.011,0  l5.323-0.016c2.504,0,4.638,0.781,6.343,2.322c1.711,1.548,2.579,3.769,2.579,6.6c0,3.646-1.405,6.238-4.175,7.705  C166.479,951.413,164.881,951.781,163.109,951.781z"
     id="path37"
     style="fill:#000000" /><path
     fill="#FFFFFF"
     d="M242.155,995.33l-0.141-0.271l-14.038-37.017h0c-4.899-12.093-2.748-18.125-2.158-19.403l-0.001-0.001  l0.084-0.263c0.349-0.686,0.79-1.326,1.31-1.9c1.549-1.712,3.73-2.579,6.482-2.579l0.581,0.016c4.054,0.17,6.692,2.103,7.854,5.744  c0.312,0.854,0.476,1.932,0.483,3.189v1.331h2.839V931.06h-11.757c-4.134,0-7.273,1.47-9.331,4.366  c-1.444,2.095-2.216,4.444-2.29,6.979c-0.266,3.267,0.084,8.791,3.253,16.639l0.106,0.266l-0.008,0.003l15.2,40.08l0.012-0.004  l0.11,0.29c3.303,9.926,1.486,14.978,0.951,16.134l0,0l-0.083,0.263c-0.35,0.686-0.791,1.325-1.31,1.9  c-1.549,1.711-3.73,2.579-6.482,2.579l-0.581-0.016c-4.055-0.169-6.693-2.103-7.854-5.743c-0.312-0.855-0.476-1.932-0.483-3.189  v-1.332h-2.839v13.116h11.757c4.134,0,7.273-1.469,9.33-4.366c1.445-2.094,2.216-4.443,2.291-6.978  c0.387-4.773-0.716-10.392-3.282-16.718L242.155,995.33z"
     id="path39"
     style="fill:#000000" /><path
     fill="#FFFFFF"
     d="M290.464,934.057h8.867c1.099,0,2.004,0.347,2.689,1.032c0.686,0.686,1.033,1.591,1.033,2.69v79.052  c0,1.101-0.348,2.006-1.033,2.69c-0.489,0.489-1.104,0.808-1.827,0.947l-2.331,0.004l-0.005,1.382c-0.004,0.08-0.002,0.102,0,0.123  l0.005,0.071v1.34h13.125v-2.916h-2.1c-0.552-0.104-1.019-0.29-1.444-0.557c-1.03-0.599-1.557-1.639-1.557-3.086v-79.052  c0-2.435,1.287-3.722,3.722-3.722h8.749v5.252h2.891v-8.088h-33.677v8.088h2.89V934.057z"
     id="path41"
     style="fill:#000000" /><path
     fill="#FFFFFF"
     d="M94.594,1065.135h2.045c0.625,0.115,1.216,0.367,1.812,0.753c0.874,0.569,1.316,1.547,1.316,2.906v73.853  c0,2.505-0.781,4.639-2.321,6.342c-1.549,1.711-3.77,2.579-6.6,2.579c-2.754,0-4.934-0.868-6.482-2.579  c-1.54-1.701-2.321-3.835-2.321-6.342v-73.853c0-1.1,0.347-2.005,1.032-2.69c0.51-0.51,1.148-0.834,1.896-0.965l2.126-0.004v-1.033  c0.019-0.149,0.026-0.265,0.026-0.389c0-0.133-0.008-0.259-0.023-0.376l-0.002-1.101H74.008v2.898h2.071  c0.625,0.115,1.216,0.367,1.812,0.753c0.874,0.57,1.316,1.547,1.316,2.906v73.853c0,2.759,0.815,5.243,2.422,7.385  c2.212,2.901,5.313,4.372,9.217,4.372c4.059,0,7.239-1.471,9.455-4.374c1.525-2.213,2.302-4.701,2.302-7.383v-73.853  c0-2.14,0.954-3.371,2.836-3.657l2.245-0.003v-2.898h-13.09v1.087c-0.017,0.15-0.026,0.266-0.026,0.39  c0,0.115,0.009,0.222,0.023,0.323L94.594,1065.135z"
     id="path43"
     style="fill:#000000" /><path
     fill="#FFFFFF"
     d="M153.753,1064.969c0.319-0.042,0.587-0.062,0.836-0.062h1.36v-2.836h-13.117v2.836h1.478  c0.452,0,0.798,0.004,1.078,0.02c0.612,0.07,2.009,0.391,2.625,1.868l0.07-0.018l0.041,0.334l10.104,87.293l1.443-0.167l1.442,0.167  l10.143-87.627l0.072,0.018c0.616-1.478,2.012-1.798,2.606-1.867c0.298-0.017,0.645-0.021,1.097-0.021h1.477v-2.836h-13.116v2.836  h1.359c0.25,0,0.518,0.02,0.797,0.057l0.199,0.031c1.908,0.402,2.527,1.853,2.592,2.017l0.027,0.069l-0.009,0.073l-8.687,75.049  l-8.696-75.122l0.027-0.069c0.065-0.164,0.684-1.615,2.545-2.008L153.753,1064.969z"
     id="path45"
     style="fill:#000000" /><path
     fill="#FFFFFF"
     d="M250.991,1065.888c0.874,0.571,1.316,1.548,1.316,2.907v73.852c0,2.505-0.781,4.639-2.321,6.343  c-1.549,1.711-3.73,2.579-6.482,2.579c-3.646,0-6.239-1.405-7.705-4.174c-0.728-1.292-1.099-2.891-1.099-4.748v-73.852  c0-2.115,0.937-3.341,2.782-3.644l2.301-0.003v-2.911h-13.12v2.91h2.083c0.645,0.113,1.229,0.34,1.792,0.677  c0.879,0.528,1.325,1.528,1.325,2.971v73.852c0,2.505-0.781,4.639-2.321,6.343c-1.549,1.711-3.769,2.579-6.6,2.579  c-3.647,0-6.239-1.405-7.706-4.174c-0.727-1.292-1.098-2.891-1.098-4.748v-73.852c0-1.101,0.348-2.005,1.032-2.69  c0.495-0.496,1.118-0.817,1.849-0.953l2.204-0.004v-2.911h-13.12v2.91h2.14c0.608,0.114,1.172,0.34,1.734,0.677  c0.879,0.528,1.325,1.528,1.325,2.971v73.852c0,2.759,0.815,5.244,2.423,7.386c2.212,2.901,5.313,4.372,9.217,4.372  c2.533,0,4.627-0.502,6.225-1.491c1.604-0.991,2.881-2.309,3.798-3.913l0.257-0.449l0.256,0.449  c0.917,1.604,2.214,2.921,3.855,3.911c1.637,0.991,3.712,1.493,6.169,1.493c4.134,0,7.273-1.469,9.331-4.365  c1.531-2.221,2.309-4.709,2.309-7.393v-73.852c0.083-0.853,0.293-1.568,0.63-2.155c0.47-0.808,1.212-1.309,2.206-1.488l2.363-0.004  v-2.911h-13.12v2.91l2.061,0.006C249.842,1065.269,250.417,1065.516,250.991,1065.888z"
     id="path47"
     style="fill:#000000" /><path
     fill="#FFFFFF"
     d="M312.305,1066.043c0.668,0.668,1.015,1.547,1.031,2.613h0.058l-0.013,5.071l-8.969,30.178l-8.982-30.261  v-4.988h0.058c0.016-1.066,0.363-1.945,1.031-2.613c0.496-0.496,1.118-0.816,1.849-0.953l2.204-0.005v-2.91h-13.12v2.91l2.175,0.006  c0.559,0.115,1.133,0.362,1.707,0.735c0.689,0.449,1.111,1.161,1.256,2.115l0.003,6.157l10.338,34.783l-0.025,0.084l-10.313,34.698  v4.933c-0.149,0.998-0.571,1.708-1.258,2.157c-0.575,0.374-1.149,0.621-1.708,0.736l-0.059,0.007h-2.116v2.909h13.12v-2.909h-2.149  c-0.785-0.142-1.407-0.463-1.903-0.958c-0.669-0.668-1.016-1.547-1.031-2.613h-0.058l0.012-3.889l8.97-30.177l8.982,30.261v3.805  h-0.059c-0.016,1.066-0.363,1.945-1.031,2.613c-0.496,0.496-1.118,0.817-1.849,0.954l-2.204,0.004v2.91h13.12v-2.909l-2.176-0.007  c-0.559-0.115-1.133-0.362-1.707-0.735c-0.688-0.45-1.11-1.16-1.255-2.114l-0.003-4.977l-10.338-34.782l0.025-0.084l10.313-34.699  v-6.112c0.148-0.999,0.571-1.71,1.259-2.159c0.575-0.374,1.149-0.621,1.708-0.736l0.06-0.006h2.116v-2.91h-13.12v2.91h2.149  C311.187,1065.227,311.809,1065.547,312.305,1066.043z"
     id="path49"
     style="fill:#000000" /><path
     fill="#FFFFFF"
     d="M232.476,1250.56c1.22-3.62,2.432-7.276,3.603-10.867c1.313-4.095,2.466-7.635,3.428-10.52  c0.944-2.831,1.659-5.054,2.124-6.608c3.139-10.566,4.833-22.272,4.833-27.92c0-1.022-0.419-1.478-1.359-1.478h-22.038v8.035h2.836  v-5.199h17.725v0.296c0,3.878-0.66,11.77-1.9,16.499c-0.394,1.572-1.291,4.56-2.663,8.877c-1.381,4.339-3.27,10.104-5.614,17.138  c-1.372,4.276-2.494,7.717-3.427,10.517c-0.939,2.818-1.654,5.042-2.124,6.608c-3.139,10.56-4.833,22.268-4.833,27.92  c0,1.021,0.456,1.477,1.477,1.477h21.919v-8.036h-2.836v5.2h-17.606v-0.295c0-2.443,0.306-8.551,0.892-11.52  c0.59-2.988,1.367-6.215,2.31-9.593C230.172,1257.688,231.267,1254.146,232.476,1250.56z"
     id="path51"
     style="fill:#000000" /><path
     fill="#FFFFFF"
     d="M175.611,1196.003c0.762,0,1.571,0.274,2.406,0.815c0.874,0.57,1.316,1.549,1.316,2.907v5.2  c0,2.507-0.782,4.622-2.324,6.286c-1.547,1.67-3.767,2.517-6.597,2.517c-4.138,0-6.935-1.934-8.313-5.748  c-0.325-0.893-0.49-1.921-0.49-3.055v-5.2c0-1.101,0.347-2.005,1.032-2.69c0.685-0.685,1.589-1.032,2.69-1.032  c0.032,0,0.062-0.003,0.091-0.005l0.072-0.006l1.206-0.001v-2.824h-13.127v2.824l1.375,0.007c0.033,0.002,0.066,0.005,0.102,0.005  c0.762,0,1.571,0.274,2.406,0.815c0.874,0.57,1.316,1.549,1.316,2.907v5.2c0,2.528,0.699,4.858,2.077,6.927  c1.905,2.744,4.575,4.292,7.934,4.595l0.269,0.025v62.306c0,0.762-0.214,1.49-0.636,2.166c-0.592,0.887-1.443,1.397-2.533,1.523  l-2.031,0.002v2.868h13.116v-2.868h-1.812c-0.627-0.074-1.191-0.276-1.713-0.604c-1.03-0.6-1.556-1.64-1.556-3.086v-62.307  l0.27-0.024c3.432-0.303,6.101-1.888,7.931-4.711c1.38-2.07,2.079-4.36,2.079-6.811v-5.2c0-2.435,1.288-3.722,3.723-3.722  c0.032,0,0.062-0.003,0.091-0.005l0.073-0.006l1.195-0.001v-2.824h-13.126v2.824l1.385,0.007  C175.542,1196,175.575,1196.003,175.611,1196.003z"
     id="path53"
     style="fill:#000000" /></svg>